<svg width="1870" height="109" viewBox="0 0 1870 109" fill="none" xmlns="http://www.w3.org/2000/svg">
<g clip-path="url(#clip0_1634_2000)">
<path d="M1728.16 0.445312H1657.21C1643.93 0.445312 1633.17 11.287 1633.17 24.6618H1704.13C1717.4 24.6618 1728.16 13.8196 1728.16 0.445312Z" fill="#FF5700"/>
<path d="M-666.879 49.0055H1608.92C1622.19 49.0055 1632.96 38.1634 1632.96 24.7891H-666.879V49.0055Z" fill="#FF5700"/>
<path d="M1713.56 30.7305H1657.21C1643.93 30.7305 1633.17 41.5727 1633.17 54.947H1689.52C1702.8 54.947 1713.56 44.1048 1713.56 30.7305Z" fill="#FF5700" fill-opacity="0.5"/>
<path opacity="0.5" d="M-662.789 79.2902H1608.92C1622.2 79.2902 1632.96 68.4485 1632.96 55.0742H-662.789V79.2902Z" fill="#FF5700"/>
<path d="M1698.95 60.9023H1657.21C1643.93 60.9023 1633.17 71.7445 1633.17 85.1188H1674.92C1688.19 85.1188 1698.95 74.2766 1698.95 60.9023Z" fill="#ECECEC"/>
<path d="M-653.25 109.463H1608.92C1622.2 109.463 1632.96 98.6204 1632.96 85.2461H-653.25V109.463Z" fill="#ECECEC"/>
<path d="M1812.69 92.4427H1749.94C1744.8 103.164 1733.89 109.999 1721.91 109.999H1699L1744.79 18.2707C1750.02 7.79291 1760.8 1.16016 1772.6 1.16016H1809.74L1867.16 109.999H1821.25L1812.69 92.4427ZM1780.8 27.7839L1762.78 65.2334H1799.25L1780.8 27.7839Z" fill="#1C1C1C"/>
</g>
<defs>
<clipPath id="clip0_1634_2000">
<rect width="1870" height="109" fill="white"/>
</clipPath>
</defs>
</svg>
