<svg width="40" height="40" viewBox="0 0 40 40" fill="none" xmlns="http://www.w3.org/2000/svg">
<circle cx="20" cy="20" r="20" transform="rotate(-180 20 20)" fill="#ECECEC"/>
<path d="M22.3897 10.9085C22.7466 10.5714 23.3092 10.5875 23.6462 10.9444C23.9833 11.3013 23.9672 11.8638 23.6103 12.2009L22.3897 10.9085ZM15 19.1102L14.3897 19.7565L13.7054 19.1102L14.3897 18.464L15 19.1102ZM23.6103 26.0196C23.9672 26.3566 23.9833 26.9192 23.6462 27.2761C23.3092 27.633 22.7466 27.6491 22.3897 27.312L23.6103 26.0196ZM23.6103 12.2009L15.6103 19.7565L14.3897 18.464L22.3897 10.9085L23.6103 12.2009ZM15.6103 18.464L23.6103 26.0196L22.3897 27.312L14.3897 19.7565L15.6103 18.464Z" fill="#969696"/>
</svg>
