<svg width="18" height="21" viewBox="0 0 18 21" fill="none" xmlns="http://www.w3.org/2000/svg">
<path d="M3.68182 6C3.68182 5.62344 3.37656 5.31818 3 5.31818C2.62344 5.31818 2.31818 5.62344 2.31818 6H3.68182ZM3 19H2.31818C2.31818 19.3766 2.62344 19.6818 3 19.6818V19ZM15 19V19.6818C15.3766 19.6818 15.6818 19.3766 15.6818 19H15ZM15.6818 6C15.6818 5.62344 15.3766 5.31818 15 5.31818C14.6234 5.31818 14.3182 5.62344 14.3182 6H15.6818ZM2.31818 6V19H3.68182V6H2.31818ZM3 19.6818H15V18.3182H3V19.6818ZM15.6818 19V6H14.3182V19H15.6818Z" fill="#969696"/>
<path d="M1 4H17" stroke="#969696" stroke-width="1.36364" stroke-linecap="round"/>
<path d="M7 3V2H11V3" stroke="#969696" stroke-width="1.5" stroke-linecap="round" stroke-linejoin="round"/>
</svg>
