<svg width="24" height="24" viewBox="0 0 24 24" fill="none" xmlns="http://www.w3.org/2000/svg">
<path d="M7.16797 18.9987C5.88463 18.9987 4.8463 20.0487 4.8463 21.332C4.8463 22.6154 5.88463 23.6654 7.16797 23.6654C8.4513 23.6654 9.5013 22.6154 9.5013 21.332C9.5013 20.0487 8.4513 18.9987 7.16797 18.9987ZM0.167969 0.332031V2.66536H2.5013L6.7013 11.5204L5.1263 14.3787C4.93963 14.7054 4.83463 15.0904 4.83463 15.4987C4.83463 16.782 5.88463 17.832 7.16797 17.832H21.168V15.4987H7.65797C7.49463 15.4987 7.3663 15.3704 7.3663 15.207L7.4013 15.067L8.4513 13.1654H17.143C18.018 13.1654 18.788 12.687 19.1846 11.9637L23.3613 4.39203C23.4546 4.2287 23.5013 4.03036 23.5013 3.83203C23.5013 3.19036 22.9763 2.66536 22.3346 2.66536H5.07963L3.98297 0.332031H0.167969ZM18.8346 18.9987C17.5513 18.9987 16.513 20.0487 16.513 21.332C16.513 22.6154 17.5513 23.6654 18.8346 23.6654C20.118 23.6654 21.168 22.6154 21.168 21.332C21.168 20.0487 20.118 18.9987 18.8346 18.9987Z" fill="white"/>
</svg>
