<svg width="36" height="36" viewBox="0 0 36 36" fill="none" xmlns="http://www.w3.org/2000/svg">
<path d="M32.7071 4.70711C33.0976 4.31658 33.0976 3.68342 32.7071 3.29289C32.3166 2.90237 31.6834 2.90237 31.2929 3.29289L32.7071 4.70711ZM3.29289 31.2929C2.90237 31.6834 2.90237 32.3166 3.29289 32.7071C3.68342 33.0976 4.31658 33.0976 4.70711 32.7071L3.29289 31.2929ZM31.2929 32.7071C31.6834 33.0976 32.3166 33.0976 32.7071 32.7071C33.0976 32.3166 33.0976 31.6834 32.7071 31.2929L31.2929 32.7071ZM4.70711 3.29289C4.31658 2.90237 3.68342 2.90237 3.29289 3.29289C2.90237 3.68342 2.90237 4.31658 3.29289 4.70711L4.70711 3.29289ZM31.2929 3.29289L3.29289 31.2929L4.70711 32.7071L32.7071 4.70711L31.2929 3.29289ZM32.7071 31.2929L4.70711 3.29289L3.29289 4.70711L31.2929 32.7071L32.7071 31.2929Z" fill="white"/>
</svg>
