<svg width="40" height="40" viewBox="0 0 40 40" fill="none" xmlns="http://www.w3.org/2000/svg">
<circle cx="20" cy="20" r="20" transform="rotate(-180 20 20)" fill="#ECECEC"/>
<path d="M13.0381 26.3715C12.691 26.7186 12.691 27.2814 13.0381 27.6285C13.3853 27.9757 13.9481 27.9757 14.2952 27.6285L13.0381 26.3715ZM27.6285 14.2952C27.9757 13.9481 27.9757 13.3853 27.6285 13.0381C27.2814 12.691 26.7186 12.691 26.3715 13.0381L27.6285 14.2952ZM14.2952 13.0381C13.9481 12.691 13.3853 12.691 13.0381 13.0381C12.691 13.3853 12.691 13.9481 13.0381 14.2952L14.2952 13.0381ZM26.3715 27.6285C26.7186 27.9757 27.2814 27.9757 27.6285 27.6285C27.9757 27.2814 27.9757 26.7186 27.6285 26.3715L26.3715 27.6285ZM14.2952 27.6285L27.6285 14.2952L26.3715 13.0381L13.0381 26.3715L14.2952 27.6285ZM13.0381 14.2952L26.3715 27.6285L27.6285 26.3715L14.2952 13.0381L13.0381 14.2952Z" fill="#969696"/>
</svg>
