<svg width="17" height="18" viewBox="0 0 17 18" fill="none" xmlns="http://www.w3.org/2000/svg">
<path d="M16.7071 2.20711C17.0976 1.81658 17.0976 1.18342 16.7071 0.792894C16.3166 0.40237 15.6834 0.40237 15.2929 0.792894L16.7071 2.20711ZM0.292893 15.7929C-0.0976311 16.1834 -0.0976311 16.8166 0.292893 17.2071C0.683418 17.5976 1.31658 17.5976 1.70711 17.2071L0.292893 15.7929ZM15.2929 17.2071C15.6834 17.5976 16.3166 17.5976 16.7071 17.2071C17.0976 16.8166 17.0976 16.1834 16.7071 15.7929L15.2929 17.2071ZM1.70711 0.792893C1.31658 0.402369 0.683417 0.402369 0.292893 0.792893C-0.0976311 1.18342 -0.0976311 1.81658 0.292893 2.20711L1.70711 0.792893ZM15.2929 0.792894L0.292893 15.7929L1.70711 17.2071L16.7071 2.20711L15.2929 0.792894ZM16.7071 15.7929L1.70711 0.792893L0.292893 2.20711L15.2929 17.2071L16.7071 15.7929Z" fill="#969696"/>
</svg>
