<svg width="45" height="45" viewBox="0 0 45 45" fill="none" xmlns="http://www.w3.org/2000/svg">
<circle cx="22.5" cy="22.5" r="22.5" fill="#FF5700"/>
<path fill-rule="evenodd" clip-rule="evenodd" d="M31.4063 17.9015C31.3546 17.8035 31.2297 17.6718 31.1286 17.6089L30.9449 17.4943L28.7673 17.4803L26.5897 17.4662L26.5897 13.1104L26.5897 10.4034L26.4881 10.2739C26.2644 9.98884 26.4284 10.0001 22.4876 10.0001L18.8671 10.0001L18.7025 10.1112C18.612 10.1724 18.5105 10.2767 18.477 10.3429C18.4293 10.4374 18.4155 13.1423 18.4155 13.1423L18.4148 17.47L16.3683 17.47C14.2299 17.47 14.0056 17.4883 13.7829 17.681C13.5043 17.9221 13.4148 18.3782 13.5898 18.6648C13.639 18.7452 14.2232 19.5572 14.8882 20.4692C15.5532 21.3811 16.2399 22.3248 16.4142 22.5662C16.5885 22.8076 17.5871 24.1792 18.6332 25.6142C19.6793 27.0492 20.8501 28.6572 21.235 29.1876C21.6629 29.7771 21.9984 30.1912 22.0983 30.2531C22.3488 30.4083 22.5864 30.419 22.8405 30.2867C23.0253 30.1905 23.1955 29.9844 24.0006 28.8816C24.5195 28.1708 25.0698 27.4137 25.2235 27.1991C25.3772 26.9846 26.3749 25.613 27.4407 24.1512C30.8963 19.4115 31.2978 18.8576 31.4017 18.6868C31.531 18.4742 31.533 18.1418 31.4063 17.9015Z" fill="white"/>
<path d="M12.5 33.5H32" stroke="white" stroke-width="2" stroke-linecap="round"/>
</svg>
