<svg width="13" height="25" viewBox="0 0 13 25" fill="none" xmlns="http://www.w3.org/2000/svg">
<path fill-rule="evenodd" clip-rule="evenodd" d="M8.48047 0.070935C6.16403 0.378354 4.45027 2.00874 4.00705 4.32703C3.90863 4.84146 3.85938 5.77449 3.85938 7.12276V9.14634H1.92969H0V11.3821V13.6179H1.92969H3.85938V19.3089V25H6.14453H8.42969V19.3089V13.6179H10.6133H12.7969V11.3821V9.14634H10.6053H8.41354L8.44705 7.29167C8.47671 5.64421 8.50423 5.39157 8.69355 5.03049C9.06882 4.31423 9.35127 4.22236 11.2988 4.18354L13 4.14949V2.0748V0L10.8926 0.0152439C9.73355 0.0235772 8.64805 0.0486789 8.48047 0.070935Z" fill="#3B5998"/>
</svg>
