<svg width="45" height="45" viewBox="0 0 45 45" fill="none" xmlns="http://www.w3.org/2000/svg">
<circle cx="22.5" cy="22.5" r="22.5" fill="white"/>
<path fill-rule="evenodd" clip-rule="evenodd" d="M24.4805 10.0709C22.164 10.3784 20.4503 12.0087 20.007 14.327C19.9086 14.8415 19.8594 15.7745 19.8594 17.1228V19.1463H17.9297H16V21.3821V23.6179H17.9297H19.8594V29.3089V35H22.1445H24.4297V29.3089V23.6179H26.6133H28.7969V21.3821V19.1463H26.6053H24.4135L24.4471 17.2917C24.4767 15.6442 24.5042 15.3916 24.6935 15.0305C25.0688 14.3142 25.3513 14.2224 27.2988 14.1835L29 14.1495V12.0748V10L26.8926 10.0152C25.7335 10.0236 24.648 10.0487 24.4805 10.0709Z" fill="#3B5998"/>
</svg>
