<svg width="24" height="24" viewBox="0 0 24 24" fill="none" xmlns="http://www.w3.org/2000/svg">
<path fill-rule="evenodd" clip-rule="evenodd" d="M17.4768 4.1304C17.9999 4.32696 18.3864 4.64916 18.6002 5.067L18.7896 5.43661H19.6573C20.4474 5.43661 20.5467 5.45938 20.7665 5.69071C21.0616 6.00102 21.072 6.25481 20.8041 6.61293C20.6096 6.87314 20.5575 6.88566 19.6724 6.88566C18.9697 6.88566 18.7448 6.91878 18.7448 7.02228C18.7448 7.09743 18.5893 7.34997 18.3993 7.58337C17.4995 8.6892 15.7556 8.54088 15.0826 7.30143L14.8578 6.88721L9.13289 6.88649L3.40789 6.88566L3.20399 6.61293C2.93613 6.25481 2.94647 6.00102 3.24158 5.69071L3.48307 5.43661H9.19252H14.902L15.0433 5.15198C15.2606 4.71447 15.702 4.32251 16.1754 4.14686C16.69 3.9559 17.0021 3.95196 17.4768 4.1304ZM16.5488 5.55564C16.2618 5.71442 16.1896 5.84452 16.1877 6.20471C16.1844 6.87831 16.9596 7.14825 17.3599 6.61293C17.6278 6.25481 17.6175 6.00102 17.3223 5.69071C17.0552 5.4096 16.8707 5.37741 16.5488 5.55564ZM8.06785 10.059C8.48735 10.2911 8.87064 10.6905 9.00752 11.0379L9.12501 11.3363H14.8697C20.4833 11.3363 20.619 11.3411 20.8113 11.5433C21.0629 11.808 21.0629 12.2102 20.8113 12.4748C20.619 12.6771 20.4833 12.6818 14.8644 12.6818C9.19567 12.6818 9.1135 12.6847 9.0517 12.8894C8.94887 13.2301 8.51116 13.7124 8.10859 13.9284C7.68801 14.1542 6.82834 14.2001 6.37676 14.0211C6.03884 13.887 5.49378 13.3524 5.30159 12.9665C5.16304 12.6882 5.14021 12.6818 4.2767 12.6818C3.29895 12.6818 3 12.5243 3 12.0091C3 11.4938 3.29895 11.3363 4.2767 11.3363C5.14021 11.3363 5.16304 11.33 5.30159 11.0517C5.49378 10.6657 6.03884 10.1311 6.37676 9.99707C6.78367 9.83581 7.72698 9.87028 8.06785 10.059ZM6.83986 11.3869C6.32825 11.6652 6.32441 12.3508 6.83297 12.6275C7.3062 12.8848 7.82184 12.5624 7.82184 12.0091C7.82184 11.6348 7.58252 11.3601 7.15269 11.241C7.13655 11.2365 6.99573 11.3021 6.83986 11.3869ZM14.9602 15.8723C15.3745 16.0761 15.8324 16.568 15.94 16.925C16.0004 17.1248 16.0871 17.1325 18.3015 17.1325H20.6002L20.8041 17.4052C21.072 17.7633 21.0616 18.0171 20.7665 18.3274L20.525 18.5815L18.2818 18.5843L16.0386 18.5871L15.7926 19.0084C15.348 19.7697 14.3805 20.1681 13.5485 19.9324C13.0918 19.8032 12.5379 19.3448 12.2771 18.8804L12.1092 18.5815H7.79615H3.48307L3.24158 18.3274C2.94647 18.0171 2.93613 17.7633 3.20399 17.4052L3.40789 17.1325L7.75522 17.1322L12.1025 17.132L12.2993 16.7479C12.4075 16.5366 12.6852 16.2244 12.9164 16.0543C13.4621 15.6522 14.352 15.573 14.9602 15.8723ZM13.6026 17.3136C13.3269 17.638 13.345 18.0753 13.6463 18.3705C14.2492 18.9612 15.1206 18.0952 14.6102 17.4127C14.3609 17.0794 13.8449 17.0287 13.6026 17.3136Z" fill="#969696"/>
</svg>
