<svg width="36" height="36" viewBox="0 0 36 36" fill="none" xmlns="http://www.w3.org/2000/svg">
<path d="M9.74616 26.6868C10.1372 26.2968 10.138 25.6636 9.74804 25.2726C9.35804 24.8815 8.72488 24.8807 8.33383 25.2707L9.74616 26.6868ZM1.29384 32.292C0.902792 32.682 0.901948 33.3151 1.29195 33.7062C1.68196 34.0972 2.31512 34.0981 2.70616 33.708L1.29384 32.292ZM33 17.0425C33 24.2432 27.1464 30.0851 19.92 30.0851V32.0851C28.2459 32.0851 35 25.3528 35 17.0425H33ZM19.92 30.0851C12.6936 30.0851 6.84001 24.2432 6.84001 17.0425H4.84001C4.84001 25.3528 11.5941 32.0851 19.92 32.0851V30.0851ZM6.84001 17.0425C6.84001 9.84186 12.6936 4 19.92 4V2C11.5941 2 4.84001 8.73227 4.84001 17.0425H6.84001ZM19.92 4C27.1464 4 33 9.84186 33 17.0425H35C35 8.73227 28.2459 2 19.92 2V4ZM8.33383 25.2707L1.29384 32.292L2.70616 33.708L9.74616 26.6868L8.33383 25.2707Z" fill="white"/>
</svg>
