<svg width="45" height="45" viewBox="0 0 45 45" fill="none" xmlns="http://www.w3.org/2000/svg">
<circle cx="22.5" cy="22.5" r="22" fill="white" stroke="#C5C7C4"/>
<path d="M25.5 23C25.5 23.6922 25.2947 24.3689 24.9101 24.9445C24.5256 25.5201 23.9789 25.9687 23.3394 26.2336C22.6999 26.4985 21.9961 26.5678 21.3172 26.4327C20.6383 26.2977 20.0146 25.9644 19.5251 25.4749C19.0356 24.9854 18.7023 24.3617 18.5673 23.6828C18.4322 23.0039 18.5015 22.3001 18.7664 21.6606C19.0313 21.0211 19.4799 20.4744 20.0555 20.0899C20.6311 19.7053 21.3078 19.5 22 19.5C22.9279 19.5011 23.8176 19.8702 24.4737 20.5263C25.1298 21.1824 25.4989 22.0721 25.5 23ZM32.9375 18.1875V27.8125C32.9357 29.4364 32.2898 30.9932 31.1415 32.1415C29.9932 33.2898 28.4364 33.9357 26.8125 33.9375H17.1875C15.5636 33.9357 14.0068 33.2898 12.8585 32.1415C11.7102 30.9932 11.0643 29.4364 11.0625 27.8125V18.1875C11.0643 16.5636 11.7102 15.0068 12.8585 13.8585C14.0068 12.7102 15.5636 12.0643 17.1875 12.0625H26.8125C28.4364 12.0643 29.9932 12.7102 31.1415 13.8585C32.2898 15.0068 32.9357 16.5636 32.9375 18.1875ZM27.25 23C27.25 21.9616 26.9421 20.9466 26.3652 20.0833C25.7883 19.2199 24.9684 18.547 24.0091 18.1496C23.0498 17.7523 21.9942 17.6483 20.9758 17.8509C19.9574 18.0535 19.0219 18.5535 18.2877 19.2877C17.5535 20.0219 17.0535 20.9574 16.8509 21.9758C16.6483 22.9942 16.7523 24.0498 17.1496 25.0091C17.547 25.9684 18.2199 26.7883 19.0833 27.3652C19.9466 27.9421 20.9616 28.25 22 28.25C23.3919 28.2484 24.7263 27.6948 25.7106 26.7106C26.6948 25.7263 27.2484 24.3919 27.25 23ZM29 17.3125C29 17.0529 28.923 16.7992 28.7788 16.5833C28.6346 16.3675 28.4296 16.1992 28.1898 16.0999C27.9499 16.0006 27.686 15.9746 27.4314 16.0252C27.1768 16.0759 26.943 16.2009 26.7594 16.3844C26.5759 16.568 26.4509 16.8018 26.4002 17.0564C26.3496 17.311 26.3756 17.5749 26.4749 17.8148C26.5742 18.0546 26.7425 18.2596 26.9583 18.4038C27.1742 18.548 27.4279 18.625 27.6875 18.625C28.0356 18.625 28.3694 18.4867 28.6156 18.2406C28.8617 17.9944 29 17.6606 29 17.3125Z" fill="url(#paint0_linear_2503_7824)"/>
<defs>
<linearGradient id="paint0_linear_2503_7824" x1="15.5" y1="12" x2="28.5" y2="34" gradientUnits="userSpaceOnUse">
<stop stop-color="#2A1DFC"/>
<stop offset="0.3125" stop-color="#A41EE6"/>
<stop offset="0.666667" stop-color="#F62449"/>
<stop offset="1" stop-color="#FFDB1F"/>
</linearGradient>
</defs>
</svg>
