<svg width="45" height="45" viewBox="0 0 45 45" fill="none" xmlns="http://www.w3.org/2000/svg">
<circle cx="22.5" cy="22.5" r="22.5" fill="#FF5700"/>
<path d="M19.6438 21.8807L13.3594 15.9108C13.5806 15.7916 13.8358 15.7266 14.1081 15.7266H29.8986C30.1708 15.7266 30.426 15.7916 30.6473 15.9108L24.3628 21.8807L23.6141 22.5903L22.3436 23.7984C22.2245 23.9122 22.077 23.9338 22.0033 23.9338C21.9296 23.9338 21.7878 23.9176 21.663 23.7984L19.6438 21.8807Z" fill="white"/>
<path d="M18.8984 22.59L12.7274 28.4462C12.6309 28.2566 12.5742 28.0399 12.5742 27.8123V17.1835C12.5742 17.0047 12.6082 16.8368 12.6706 16.6797L18.8984 22.59Z" fill="white"/>
<path d="M24.3613 23.3008L30.5153 29.1461C30.3281 29.2274 30.1182 29.2707 29.897 29.2707H14.1065C13.8853 29.2707 13.6755 29.2274 13.4883 29.1461L19.6423 23.3008L20.9184 24.5089C21.219 24.7906 21.6104 24.9368 22.0018 24.9368C22.3931 24.9368 22.7845 24.796 23.0851 24.5089L24.3613 23.3008Z" fill="white"/>
<path d="M31.4279 17.185V27.8139C31.4279 28.0414 31.3711 28.2581 31.2747 28.4477L25.1094 22.5915L31.3371 16.6758C31.3938 16.8383 31.4279 17.0062 31.4279 17.185Z" fill="white"/>
</svg>
