<svg width="45" height="45" viewBox="0 0 45 45" fill="none" xmlns="http://www.w3.org/2000/svg">
<circle cx="22.5" cy="22.5" r="22.5" fill="#FF5700"/>
<path fill-rule="evenodd" clip-rule="evenodd" d="M21.2997 10.0777C17.4906 10.6333 14.5729 13.5753 14.0551 17.3826C13.8239 19.0826 14.3068 20.9482 15.7554 23.9517C16.1698 24.8109 22.1291 35.0635 22.177 34.9997C22.3558 34.7613 28.85 24.2385 29.1518 23.6981C30.2964 21.6489 30.965 19.6743 30.9643 18.3458C30.9625 15.0954 28.8568 11.9656 25.8069 10.68C24.406 10.0896 22.7423 9.86725 21.2997 10.0777ZM23.6142 13.5214C24.3828 13.6913 25.2093 14.1666 25.859 14.8125C26.3211 15.2718 26.4884 15.5055 26.7617 16.0731C27.1509 16.8813 27.2704 17.3933 27.268 18.2424C27.2642 19.6028 26.8272 20.6441 25.8478 21.6271C25.331 22.1458 25.0948 22.3213 24.5846 22.5659C23.144 23.2568 21.7346 23.2569 20.2864 22.5664C19.7688 22.3195 19.5432 22.1517 19.0239 21.6275C18.0489 20.643 17.6127 19.6153 17.6064 18.2882C17.6021 17.3982 17.7177 16.8921 18.1121 16.0731C18.3853 15.5055 18.5527 15.2718 19.0148 14.8125C20.2758 13.5588 21.8213 13.125 23.6142 13.5214Z" fill="white"/>
</svg>
