<svg width="21" height="21" viewBox="0 0 21 21" fill="none" xmlns="http://www.w3.org/2000/svg">
<path fill-rule="evenodd" clip-rule="evenodd" d="M2.3803 0.0655055C2.04125 0.156713 1.8083 0.324941 1.30322 0.843343C0.424607 1.74511 0.135439 2.38705 0.0340983 3.66092C-0.223999 6.90455 0.991621 10.5505 3.39111 13.7294C4.36344 15.0176 5.66887 16.3489 6.97561 17.3848C9.55991 19.4334 12.602 20.7126 15.4668 20.9551C16.2827 21.0242 17.731 21.0114 18.1181 20.9317C18.9323 20.7641 19.4989 20.4351 20.2368 19.7016C20.903 19.0393 20.9999 18.8578 20.9999 18.2728C20.9999 17.5759 21.0552 17.6493 18.9232 15.5223C17.4091 14.0118 17.039 13.6644 16.8288 13.5558C16.4385 13.3543 16.117 13.2767 15.6807 13.2788C14.9502 13.2824 14.5014 13.5075 13.7869 14.2286C13.2099 14.811 12.9259 15.2466 12.802 15.7391L12.751 15.9415L12.2149 15.9175C11.2858 15.8759 10.4049 15.6576 9.72586 15.3006C8.77472 14.8005 6.79234 12.9067 6.00056 11.7416C5.4793 10.9747 5.15297 9.84656 5.13233 8.74049L5.12416 8.30333L5.46589 8.18422C5.95301 8.01437 6.33246 7.7468 6.87342 7.19163C7.53024 6.51757 7.72143 6.15099 7.77076 5.47096C7.80132 5.04944 7.68279 4.52822 7.47572 4.17387C7.31283 3.89505 3.91854 0.449845 3.61277 0.252947C3.40034 0.116157 2.99609 -0.00423112 2.76366 0.000114107C2.68079 0.00164772 2.50828 0.0310845 2.3803 0.0655055Z" fill="white"/>
</svg>
