<svg width="45" height="45" viewBox="0 0 45 45" fill="none" xmlns="http://www.w3.org/2000/svg">
<circle cx="22.5" cy="22.5" r="22.5" fill="#FF5700"/>
<path fill-rule="evenodd" clip-rule="evenodd" d="M15.0403 14.0561C14.7496 14.1343 14.55 14.2785 14.117 14.7229C13.3639 15.4958 13.1161 16.046 13.0292 17.1379C12.808 19.9182 13.85 23.0433 15.9067 25.7681C16.7401 26.8723 17.859 28.0133 18.9791 28.9012C21.1942 30.6572 23.8017 31.7537 26.2572 31.9615C26.9566 32.0207 28.198 32.0097 28.5298 31.9415C29.2277 31.7978 29.7133 31.5158 30.3458 30.8871C30.9168 30.3194 30.9999 30.1639 30.9999 29.6624C30.9999 29.0651 31.0473 29.1279 29.2199 27.3048C27.9221 26.0101 27.6049 25.7123 27.4247 25.6193C27.0901 25.4465 26.8145 25.38 26.4406 25.3818C25.8145 25.3849 25.4298 25.5778 24.8173 26.1959C24.3228 26.6951 24.0793 27.0685 23.9731 27.4907L23.9294 27.6641L23.4699 27.6436C22.6736 27.608 21.9184 27.4208 21.3364 27.1148C20.5212 26.6862 18.822 25.0629 18.1433 24.0643C17.6965 23.4069 17.4168 22.4399 17.3991 21.4918L17.3921 21.1171L17.685 21.015C18.1026 20.8695 18.4278 20.6401 18.8915 20.1643C19.4545 19.5865 19.6184 19.2723 19.6607 18.6894C19.6868 18.3281 19.5852 17.8813 19.4078 17.5776C19.2681 17.3386 16.3587 14.3856 16.0967 14.2168C15.9146 14.0996 15.5681 13.9964 15.3688 14.0001C15.2978 14.0014 15.15 14.0266 15.0403 14.0561Z" fill="white"/>
</svg>
