<svg width="18" height="18" viewBox="0 0 18 18" fill="none" xmlns="http://www.w3.org/2000/svg">
<path d="M9.3266 1C9.3266 0.447715 8.87888 0 8.3266 0C7.77431 0 7.3266 0.447715 7.3266 1H9.3266ZM7.3266 17C7.3266 17.5523 7.77431 18 8.3266 18C8.87888 18 9.3266 17.5523 9.3266 17H7.3266ZM16.1111 10C16.6634 10 17.1111 9.55229 17.1111 9C17.1111 8.44772 16.6634 8 16.1111 8V10ZM1 8C0.447715 8 0 8.44772 0 9C0 9.55229 0.447715 10 1 10V8ZM7.3266 1V9H9.3266V1H7.3266ZM7.3266 9V17H9.3266V9H7.3266ZM8.3266 10H16.1111V8H8.3266V10ZM16.1111 8H1V10H16.1111V8Z" fill="#C5C7C4"/>
</svg>
