<svg width="45" height="45" viewBox="0 0 45 45" fill="none" xmlns="http://www.w3.org/2000/svg">
<circle cx="22.5" cy="22.5" r="22.5" fill="#FF5700"/>
<path fill-rule="evenodd" clip-rule="evenodd" d="M29.7961 12.0197C29.32 12.0677 28.8841 12.2062 28.3745 12.4712C27.9557 12.6889 27.8033 12.8396 22.0652 18.7117C17.8274 23.0484 16.1439 24.8058 16.0377 25.0036C15.1858 26.5904 15.9711 28.5618 17.6595 29.0752C18.0493 29.1938 18.785 29.1969 19.1514 29.0816C19.8589 28.8591 19.7576 28.9531 24.3913 24.216L28.7768 19.7326V19.4951C28.7768 19.0521 28.3687 18.8054 27.9829 19.0154C27.9032 19.0587 25.943 21.037 23.6269 23.4116C20.4456 26.6731 19.3501 27.7638 19.1475 27.8711C18.7683 28.072 18.2341 28.1026 17.8306 27.9467C17.4981 27.8182 17.1293 27.481 16.9678 27.1578C16.7209 26.6636 16.7351 26.0213 17.0031 25.5527C17.0722 25.4319 19.7193 22.6877 22.8857 19.4545C27.8907 14.3438 28.6825 13.5567 28.9469 13.429C30.0829 12.8804 31.2572 13.0689 32.1087 13.9364C32.6701 14.5084 32.9075 15.0982 32.9075 15.9209C32.9075 16.5095 32.7766 16.9775 32.4852 17.4306C32.3481 17.6436 29.8409 20.2421 25.2289 24.951C17.592 32.7483 17.969 32.3908 17.0554 32.7023C16.6755 32.8319 16.5431 32.8486 15.902 32.8488C15.2676 32.8489 15.1268 32.8315 14.7665 32.7083C14.1966 32.5136 13.7063 32.22 13.2982 31.8293C12.4929 31.0583 12.0882 30.1005 12.0892 28.9676C12.0899 28.1141 12.2883 27.4446 12.7512 26.7332C12.8396 26.5973 15.4168 23.9165 18.4784 20.7759C21.5399 17.6353 24.0715 15.0117 24.1041 14.9458C24.2023 14.7471 24.1718 14.5649 24.0106 14.3883C23.8265 14.1866 23.6232 14.1253 23.422 14.2105C23.34 14.2453 20.7476 16.8609 17.6612 20.023C11.665 26.1662 11.7271 26.0973 11.3483 27.0286C11.0616 27.7335 10.9975 28.0986 11.0001 29.0118C11.0022 29.7435 11.0184 29.8892 11.1458 30.3179C11.7552 32.3681 13.3745 33.764 15.3883 33.9748C16.2339 34.0634 17.1521 33.916 17.9197 33.5686C18.7405 33.197 18.7453 33.1924 26.2041 25.5425C33.91 17.6394 33.5529 18.0334 33.8581 17.0972C33.9856 16.7065 34.0012 16.576 33.9999 15.9167C33.9986 15.2653 33.9813 15.1223 33.8567 14.7363C33.2799 12.949 31.6164 11.8361 29.7961 12.0197Z" fill="white"/>
</svg>
