<svg width="28" height="27" viewBox="0 0 28 27" fill="none" xmlns="http://www.w3.org/2000/svg">
<path d="M7.32413 20.5901C7.71465 20.1996 7.71465 19.5664 7.32413 19.1759C6.9336 18.7854 6.30044 18.7854 5.90991 19.1759L7.32413 20.5901ZM0.292893 24.7929C-0.0976311 25.1834 -0.0976311 25.8166 0.292893 26.2071C0.683418 26.5976 1.31658 26.5976 1.70711 26.2071L0.292893 24.7929ZM25.5319 12.734C25.5319 18.3861 20.95 22.9681 15.2979 22.9681V24.9681C22.0546 24.9681 27.5319 19.4907 27.5319 12.734H25.5319ZM15.2979 22.9681C9.64578 22.9681 5.06384 18.3861 5.06384 12.734H3.06384C3.06384 19.4907 8.54121 24.9681 15.2979 24.9681V22.9681ZM5.06384 12.734C5.06384 7.08194 9.64578 2.5 15.2979 2.5V0.5C8.54121 0.5 3.06384 5.97737 3.06384 12.734H5.06384ZM15.2979 2.5C20.95 2.5 25.5319 7.08194 25.5319 12.734H27.5319C27.5319 5.97737 22.0546 0.5 15.2979 0.5V2.5ZM5.90991 19.1759L0.292893 24.7929L1.70711 26.2071L7.32413 20.5901L5.90991 19.1759Z" fill="#969696"/>
</svg>
