<svg width="23" height="23" viewBox="0 0 23 23" fill="none" xmlns="http://www.w3.org/2000/svg">
<path d="M13.4256 6.693C13.4256 8.46809 12.7184 10.1705 11.4595 11.4257C10.2006 12.6808 8.49316 13.386 6.71281 13.386C4.93246 13.386 3.22503 12.6808 1.96614 11.4257C0.707241 10.1705 8.15738e-10 8.46809 0 6.693C0 4.91791 0.707241 3.21552 1.96614 1.96033C3.22503 0.705153 4.93246 0 6.71281 0C8.49316 0 10.2006 0.705153 11.4595 1.96033C12.7184 3.21552 13.4256 4.91791 13.4256 6.693Z" fill="#00B7F0"/>
<path d="M22.7818 16.3047C22.7818 17.1839 22.6081 18.0545 22.2706 18.8669C21.9332 19.6792 21.4385 20.4173 20.815 21.039C20.1914 21.6607 19.4511 22.1539 18.6364 22.4903C17.8217 22.8268 16.9485 23 16.0667 23C14.2857 23 12.5777 22.2946 11.3184 21.039C10.059 19.7834 9.35156 18.0804 9.35156 16.3047C9.35156 14.529 10.059 12.826 11.3184 11.5704C12.5777 10.3148 14.2857 9.60938 16.0667 9.60938C16.9485 9.60937 17.8217 9.78255 18.6364 10.119C19.4511 10.4555 20.1914 10.9487 20.815 11.5704C21.4385 12.1921 21.9332 12.9302 22.2706 13.7425C22.6081 14.5548 22.7818 15.4254 22.7818 16.3047Z" fill="#0085C8"/>
<path d="M22.024 11.5538C22.024 12.9459 21.749 14.3244 21.2147 15.6105C20.6804 16.8967 19.8972 18.0653 18.9099 19.0496C17.9227 20.034 16.7506 20.8148 15.4606 21.3476C14.1707 21.8803 12.7881 22.1545 11.3919 22.1545C9.99566 22.1545 8.6131 21.8803 7.32315 21.3476C6.03321 20.8148 4.86113 20.034 3.87384 19.0496C2.88656 18.0653 2.1034 16.8967 1.56909 15.6105C1.03477 14.3244 0.759766 12.9459 0.759766 11.5538C0.759766 10.1617 1.03477 8.78324 1.56909 7.49711C2.1034 6.21097 2.88656 5.04236 3.87384 4.058C4.86113 3.07363 6.03321 2.29279 7.32315 1.76005C8.6131 1.22732 9.99566 0.953125 11.3919 0.953125C12.7881 0.953125 14.1707 1.22732 15.4606 1.76005C16.7506 2.29279 17.9227 3.07363 18.9099 4.058C19.8972 5.04236 20.6804 6.21097 21.2147 7.49711C21.749 8.78324 22.024 10.1617 22.024 11.5538Z" fill="url(#paint0_linear_1687_23102)"/>
<path fill-rule="evenodd" clip-rule="evenodd" d="M8.40176 11.185C7.9721 10.9021 7.61356 10.5238 7.3541 10.0795C7.10361 9.6101 6.97997 9.08341 6.99543 8.55154C6.97644 7.87655 7.20672 7.21822 7.64226 6.70234C8.0949 6.18428 8.67666 5.79542 9.32832 5.57534C10.0371 5.32486 10.7839 5.19906 11.5355 5.20351C12.0273 5.19886 12.5186 5.23657 13.0039 5.31621C13.3513 5.36987 13.6925 5.45796 14.0225 5.57917C14.3255 5.68176 14.599 5.85646 14.8195 6.08824C14.982 6.27894 15.0695 6.52233 15.0655 6.77287C15.0713 6.90303 15.0514 7.03306 15.007 7.15553C14.9625 7.278 14.8944 7.39051 14.8065 7.48664C14.7233 7.57522 14.6223 7.6452 14.5102 7.69197C14.398 7.73875 14.2773 7.76126 14.1558 7.75804C13.9887 7.75666 13.8238 7.71954 13.6722 7.64917C13.2986 7.48187 12.9137 7.34097 12.5203 7.22751C12.1583 7.132 11.785 7.08558 11.4106 7.08951C10.9226 7.07154 10.4398 7.19508 10.0204 7.44524C9.84337 7.55283 9.6985 7.70599 9.60089 7.88873C9.50329 8.07147 9.45653 8.27708 9.46551 8.48407C9.46293 8.75584 9.56629 9.01791 9.75367 9.2147C9.97633 9.44589 10.2395 9.63428 10.53 9.77054C10.8555 9.93205 11.3409 10.1462 11.9862 10.413C12.0576 10.4356 12.1273 10.4636 12.1946 10.4966C12.8244 10.7458 13.4281 11.0562 13.9972 11.4235C14.4466 11.7166 14.8256 12.1057 15.1069 12.5627C15.3839 13.0431 15.5226 13.5908 15.5077 14.1451C15.531 14.8239 15.3365 15.4923 14.9529 16.0526C14.5622 16.5831 14.0216 16.9844 13.4009 17.2049C12.6528 17.4723 11.8623 17.6011 11.068 17.5852C9.97658 17.6234 8.89033 17.4178 7.88828 16.9833C7.6321 16.8692 7.40749 16.6945 7.23378 16.4743C7.08956 16.2724 7.01478 16.0292 7.02072 15.7812C7.01356 15.6504 7.03487 15.5196 7.08316 15.3978C7.13146 15.276 7.20559 15.1662 7.30045 15.0759C7.49933 14.9017 7.7575 14.8105 8.02163 14.8213C8.31592 14.8253 8.60497 14.8997 8.86466 15.0383C9.18756 15.1998 9.44226 15.3209 9.62875 15.4017C9.84173 15.4909 10.0623 15.5607 10.2878 15.6102C10.5659 15.6713 10.85 15.7006 11.1347 15.6976C11.6381 15.7336 12.1391 15.6 12.5579 15.3181C12.7147 15.1954 12.8399 15.0371 12.9234 14.8563C13.0068 14.6755 13.046 14.4775 13.0377 14.2785C13.0381 13.9964 12.9306 13.7248 12.7372 13.5195C12.4816 13.2556 12.1825 13.0377 11.8528 12.8755C11.463 12.6701 10.9148 12.4196 10.2081 12.1242C9.57617 11.8723 8.97102 11.5576 8.40176 11.185Z" fill="white"/>
<defs>
<linearGradient id="paint0_linear_1687_23102" x1="7.24266" y1="4.36555" x2="17.856" y2="22.7415" gradientUnits="userSpaceOnUse">
<stop stop-color="#00B7F0"/>
<stop offset="1" stop-color="#007CC1"/>
</linearGradient>
</defs>
</svg>
