<svg width="45" height="45" viewBox="0 0 45 45" fill="none" xmlns="http://www.w3.org/2000/svg">
<circle cx="22.5" cy="22.5" r="22" fill="white" stroke="#C5C7C4"/>
<path d="M24.4256 17.693C24.4256 19.4681 23.7184 21.1705 22.4595 22.4257C21.2006 23.6808 19.4932 24.386 17.7128 24.386C15.9325 24.386 14.225 23.6808 12.9661 22.4257C11.7072 21.1705 11 19.4681 11 17.693C11 15.9179 11.7072 14.2155 12.9661 12.9603C14.225 11.7052 15.9325 11 17.7128 11C19.4932 11 21.2006 11.7052 22.4595 12.9603C23.7184 14.2155 24.4256 15.9179 24.4256 17.693Z" fill="#00B7F0"/>
<path d="M33.7818 27.3047C33.7818 28.1839 33.6081 29.0545 33.2706 29.8669C32.9332 30.6792 32.4385 31.4173 31.815 32.039C31.1914 32.6607 30.4511 33.1539 29.6364 33.4903C28.8217 33.8268 27.9485 34 27.0667 34C25.2857 34 23.5777 33.2946 22.3184 32.039C21.059 30.7834 20.3516 29.0804 20.3516 27.3047C20.3516 25.529 21.059 23.826 22.3184 22.5704C23.5777 21.3148 25.2857 20.6094 27.0667 20.6094C27.9485 20.6094 28.8217 20.7826 29.6364 21.119C30.4511 21.4555 31.1914 21.9487 31.815 22.5704C32.4385 23.1921 32.9332 23.9302 33.2706 24.7425C33.6081 25.5548 33.7818 26.4254 33.7818 27.3047Z" fill="#0085C8"/>
<path d="M33.024 22.5538C33.024 23.9459 32.749 25.3244 32.2147 26.6105C31.6804 27.8967 30.8972 29.0653 29.9099 30.0496C28.9227 31.034 27.7506 31.8148 26.4606 32.3476C25.1707 32.8803 23.7881 33.1545 22.3919 33.1545C20.9957 33.1545 19.6131 32.8803 18.3232 32.3476C17.0332 31.8148 15.8611 31.034 14.8738 30.0496C13.8866 29.0653 13.1034 27.8967 12.5691 26.6105C12.0348 25.3244 11.7598 23.9459 11.7598 22.5538C11.7598 21.1617 12.0348 19.7832 12.5691 18.4971C13.1034 17.211 13.8866 16.0424 14.8738 15.058C15.8611 14.0736 17.0332 13.2928 18.3232 12.7601C19.6131 12.2273 20.9957 11.9531 22.3919 11.9531C23.7881 11.9531 25.1707 12.2273 26.4606 12.7601C27.7506 13.2928 28.9227 14.0736 29.9099 15.058C30.8972 16.0424 31.6804 17.211 32.2147 18.4971C32.749 19.7832 33.024 21.1617 33.024 22.5538Z" fill="url(#paint0_linear_2503_7857)"/>
<path fill-rule="evenodd" clip-rule="evenodd" d="M19.4018 22.185C18.9721 21.9021 18.6136 21.5238 18.3541 21.0795C18.1036 20.6101 17.98 20.0834 17.9954 19.5515C17.9764 18.8765 18.2067 18.2182 18.6423 17.7023C19.0949 17.1843 19.6767 16.7954 20.3283 16.5753C21.0371 16.3249 21.7839 16.1991 22.5355 16.2035C23.0273 16.1989 23.5186 16.2366 24.0039 16.3162C24.3513 16.3699 24.6925 16.458 25.0225 16.5792C25.3255 16.6818 25.599 16.8565 25.8195 17.0882C25.982 17.2789 26.0695 17.5223 26.0655 17.7729C26.0713 17.903 26.0514 18.0331 26.007 18.1555C25.9625 18.278 25.8944 18.3905 25.8065 18.4866C25.7233 18.5752 25.6223 18.6452 25.5102 18.692C25.398 18.7387 25.2773 18.7613 25.1558 18.758C24.9887 18.7567 24.8238 18.7195 24.6722 18.6492C24.2986 18.4819 23.9137 18.341 23.5203 18.2275C23.1583 18.132 22.785 18.0856 22.4106 18.0895C21.9226 18.0715 21.4398 18.1951 21.0204 18.4452C20.8434 18.5528 20.6985 18.706 20.6009 18.8887C20.5033 19.0715 20.4565 19.2771 20.4655 19.4841C20.4629 19.7558 20.5663 20.0179 20.7537 20.2147C20.9763 20.4459 21.2395 20.6343 21.53 20.7705C21.8555 20.932 22.3409 21.1462 22.9862 21.413C23.0576 21.4356 23.1273 21.4636 23.1946 21.4966C23.8244 21.7458 24.4281 22.0562 24.9972 22.4235C25.4466 22.7166 25.8256 23.1057 26.1069 23.5627C26.3839 24.0431 26.5226 24.5908 26.5077 25.1451C26.531 25.8239 26.3365 26.4923 25.9529 27.0526C25.5622 27.5831 25.0216 27.9844 24.4009 28.2049C23.6528 28.4723 22.8623 28.6011 22.068 28.5852C20.9766 28.6234 19.8903 28.4178 18.8883 27.9833C18.6321 27.8692 18.4075 27.6945 18.2338 27.4743C18.0896 27.2724 18.0148 27.0292 18.0207 26.7812C18.0136 26.6504 18.0349 26.5196 18.0832 26.3978C18.1315 26.276 18.2056 26.1662 18.3005 26.0759C18.4993 25.9017 18.7575 25.8105 19.0216 25.8213C19.3159 25.8253 19.605 25.8997 19.8647 26.0383C20.1876 26.1998 20.4423 26.3209 20.6287 26.4017C20.8417 26.4909 21.0623 26.5607 21.2878 26.6102C21.5659 26.6713 21.85 26.7006 22.1347 26.6976C22.6381 26.7336 23.1391 26.6 23.5579 26.3181C23.7147 26.1954 23.8399 26.0371 23.9234 25.8563C24.0068 25.6755 24.046 25.4775 24.0377 25.2785C24.0381 24.9964 23.9306 24.7248 23.7372 24.5195C23.4816 24.2556 23.1825 24.0377 22.8528 23.8755C22.463 23.6701 21.9148 23.4196 21.2081 23.1242C20.5762 22.8723 19.971 22.5576 19.4018 22.185Z" fill="white"/>
<defs>
<linearGradient id="paint0_linear_2503_7857" x1="18.2427" y1="15.3656" x2="28.856" y2="33.7415" gradientUnits="userSpaceOnUse">
<stop stop-color="#00B7F0"/>
<stop offset="1" stop-color="#007CC1"/>
</linearGradient>
</defs>
</svg>
