<svg width="21" height="23" viewBox="0 0 21 23" fill="none" xmlns="http://www.w3.org/2000/svg">
<g clip-path="url(#clip0_1687_23092)">
<path d="M5.55078 17.4492H11.1025L5.55078 23.0009V17.4492Z" fill="#924CC4"/>
<path d="M13.0969 0.792969H7.5235C3.80633 0.792969 0.792969 3.94707 0.792969 7.83784V11.9895C0.792969 15.8803 3.80633 19.0343 7.5235 19.0343H13.0969C16.8141 19.0343 19.8274 15.8803 19.8274 11.9895V7.83784C19.8274 3.94707 16.8141 0.792969 13.0969 0.792969Z" fill="#924CC4"/>
<path d="M11.5954 3.17188L11.5969 3.17342C11.3287 3.17342 11.1053 3.38787 11.1028 3.64743C11.1012 3.90817 11.3237 4.12628 11.5938 4.12763C12.7594 4.13638 13.7178 4.50563 14.4905 5.23208C15.2542 5.95181 15.653 6.94834 15.6631 8.2496V8.25114C15.6659 8.51003 15.8884 8.7236 16.1573 8.7236C16.1573 8.7236 16.1616 8.72213 16.1619 8.72205C16.4314 8.71959 16.6551 8.50236 16.653 8.24185C16.6469 7.4824 16.5239 6.78441 16.2827 6.1708C16.0385 5.5507 15.6668 5.00226 15.1829 4.54586C14.2266 3.64674 13.0058 3.1818 11.6 3.17188H11.5954ZM6.1118 4.76892C5.92406 4.73739 5.7215 4.77358 5.51852 4.87116H5.50148L5.4798 4.88355C5.10272 5.09791 4.74835 5.38442 4.41716 5.74481L4.39083 5.77425V5.79903C4.16174 6.08461 4.01051 6.37234 3.97569 6.66029C3.96457 6.70909 3.96484 6.75417 3.96484 6.80125C3.96484 6.93226 3.98486 7.06414 4.02526 7.19471L4.0361 7.23188L4.05779 7.24582C4.18859 7.69446 4.48645 8.39162 5.13591 9.57402C5.5685 10.3577 6.01048 11.013 6.44949 11.5645C6.68074 11.8544 6.94168 12.1559 7.24569 12.4599C7.24926 12.4635 7.26273 12.4767 7.27667 12.4893C7.28151 12.4941 7.28795 12.5037 7.30455 12.5203L7.33553 12.5513H7.33708C7.34778 12.562 7.35562 12.5692 7.35722 12.5714L7.36187 12.5776L7.36806 12.5838C7.67209 12.8844 7.97182 13.1472 8.26495 13.3769C8.81581 13.8158 9.47012 14.2618 10.2539 14.6951C11.438 15.3481 12.1435 15.6431 12.5898 15.7717L12.6053 15.7918L12.6332 15.8011C12.7597 15.8433 12.8902 15.8619 13.0205 15.86C13.0733 15.8628 13.1199 15.8592 13.1645 15.8491C13.4703 15.8134 13.7744 15.6696 14.0738 15.4185L14.0769 15.4139L14.08 15.4123C14.0847 15.4077 14.0822 15.4092 14.0847 15.4061C14.0874 15.4037 14.0881 15.4008 14.0909 15.3984C14.4453 15.075 14.7307 14.7232 14.9459 14.3466L14.9599 14.3233V14.3001C15.1576 13.8885 15.0796 13.4682 14.7585 13.2003C14.7506 13.1936 14.5968 13.0651 14.4053 12.9091C14.2095 12.7496 13.9765 12.5625 13.8198 12.4475C13.5232 12.2281 13.065 11.9438 12.8036 11.7984C12.3017 11.5174 11.7766 11.6809 11.5458 11.9797L11.1415 12.4862C10.9783 12.6917 10.6514 12.6726 10.6427 12.6721C7.89846 11.9663 7.16112 9.20638 7.15585 9.18676C7.15536 9.17812 7.13603 8.85224 7.34173 8.68642L7.84517 8.28367C8.14476 8.05429 8.31359 7.529 8.03105 7.02586C7.88365 6.76574 7.59821 6.30388 7.38201 6.0097C7.26517 5.85237 7.07844 5.62012 6.91885 5.42416C6.83943 5.32622 6.76551 5.23564 6.71282 5.17167C6.6861 5.13969 6.66613 5.11386 6.65086 5.09577C6.64325 5.08673 6.63673 5.08083 6.63227 5.07563C6.63005 5.07302 6.62806 5.07161 6.62608 5.06944C6.48668 4.90389 6.30903 4.80253 6.11335 4.76892H6.1118ZM11.6248 5.39473C11.3603 5.37608 11.1236 5.57328 11.1043 5.82846C11.085 6.08393 11.2909 6.31173 11.5551 6.33035C12.2085 6.37652 12.6489 6.56858 12.9802 6.91898V6.92053C13.3184 7.27743 13.4733 7.68487 13.4604 8.24185V8.24495C13.4547 8.50126 13.6688 8.71798 13.9344 8.7236H13.9468C14.2085 8.7236 14.4258 8.51661 14.4316 8.26354C14.4495 7.49789 14.2014 6.81509 13.699 6.28543C13.193 5.75317 12.4773 5.45533 11.6248 5.39473Z" fill="white"/>
</g>
<defs>
<clipPath id="clip0_1687_23092">
<rect width="20.6207" height="23" fill="white"/>
</clipPath>
</defs>
</svg>
