<svg width="45" height="45" viewBox="0 0 45 45" fill="none" xmlns="http://www.w3.org/2000/svg">
<circle cx="22.5" cy="22.5" r="22" fill="white" stroke="#C5C7C4"/>
<g clip-path="url(#clip0_2503_7847)">
<path d="M17.5508 28.4492H23.1025L17.5508 34.0009V28.4492Z" fill="#924CC4"/>
<path d="M25.0969 11.793H19.5235C15.8063 11.793 12.793 14.9471 12.793 18.8378V22.9895C12.793 26.8803 15.8063 30.0343 19.5235 30.0343H25.0969C28.8141 30.0343 31.8274 26.8803 31.8274 22.9895V18.8378C31.8274 14.9471 28.8141 11.793 25.0969 11.793Z" fill="#924CC4"/>
<path d="M23.5954 14.1719L23.5969 14.1734C23.3287 14.1734 23.1053 14.3879 23.1028 14.6474C23.1012 14.9082 23.3237 15.1263 23.5938 15.1276C24.7594 15.1364 25.7178 15.5056 26.4905 16.2321C27.2542 16.9518 27.653 17.9483 27.6631 19.2496V19.2511C27.6659 19.51 27.8884 19.7236 28.1573 19.7236C28.1573 19.7236 28.1616 19.7221 28.1619 19.722C28.4314 19.7196 28.6551 19.5024 28.653 19.2419C28.6469 18.4824 28.5239 17.7844 28.2827 17.1708C28.0385 16.5507 27.6668 16.0023 27.1829 15.5459C26.2266 14.6467 25.0058 14.1818 23.6 14.1719H23.5954ZM18.1118 15.7689C17.9241 15.7374 17.7215 15.7736 17.5185 15.8712H17.5015L17.4798 15.8836C17.1027 16.0979 16.7483 16.3844 16.4172 16.7448L16.3908 16.7742V16.799C16.1617 17.0846 16.0105 17.3723 15.9757 17.6603C15.9646 17.7091 15.9648 17.7542 15.9648 17.8013C15.9648 17.9323 15.9849 18.0641 16.0253 18.1947L16.0361 18.2319L16.0578 18.2458C16.1886 18.6945 16.4864 19.3916 17.1359 20.574C17.5685 21.3577 18.0105 22.013 18.4495 22.5645C18.6807 22.8544 18.9417 23.1559 19.2457 23.4599C19.2493 23.4635 19.2627 23.4767 19.2767 23.4893C19.2815 23.4941 19.2879 23.5037 19.3046 23.5203L19.3355 23.5513H19.3371C19.3478 23.562 19.3556 23.5692 19.3572 23.5714L19.3619 23.5776L19.3681 23.5838C19.6721 23.8844 19.9718 24.1472 20.265 24.3769C20.8158 24.8158 21.4701 25.2618 22.2539 25.6951C23.438 26.3481 24.1435 26.6431 24.5898 26.7717L24.6053 26.7918L24.6332 26.8011C24.7597 26.8433 24.8902 26.8619 25.0205 26.86C25.0733 26.8628 25.1199 26.8592 25.1645 26.8491C25.4703 26.8134 25.7744 26.6696 26.0738 26.4185L26.0769 26.4139L26.08 26.4123C26.0847 26.4077 26.0822 26.4092 26.0847 26.4061C26.0874 26.4037 26.0881 26.4008 26.0909 26.3984C26.4453 26.075 26.7307 25.7232 26.9459 25.3466L26.9599 25.3233V25.3001C27.1576 24.8885 27.0796 24.4682 26.7585 24.2003C26.7506 24.1936 26.5968 24.0651 26.4053 23.9091C26.2095 23.7496 25.9765 23.5625 25.8198 23.4475C25.5232 23.2281 25.065 22.9438 24.8036 22.7984C24.3017 22.5174 23.7766 22.6809 23.5458 22.9797L23.1415 23.4862C22.9783 23.6917 22.6514 23.6726 22.6427 23.6721C19.8985 22.9663 19.1611 20.2064 19.1558 20.1868C19.1554 20.1781 19.136 19.8522 19.3417 19.6864L19.8452 19.2837C20.1448 19.0543 20.3136 18.529 20.031 18.0259C19.8837 17.7657 19.5982 17.3039 19.382 17.0097C19.2652 16.8524 19.0784 16.6201 18.9188 16.4242C18.8394 16.3262 18.7655 16.2356 18.7128 16.1717C18.6861 16.1397 18.6661 16.1139 18.6509 16.0958C18.6432 16.0867 18.6367 16.0808 18.6323 16.0756C18.6301 16.073 18.6281 16.0716 18.6261 16.0694C18.4867 15.9039 18.309 15.8025 18.1133 15.7689H18.1118ZM23.6248 16.3947C23.3603 16.3761 23.1236 16.5733 23.1043 16.8285C23.085 17.0839 23.2909 17.3117 23.5551 17.3303C24.2085 17.3765 24.6489 17.5686 24.9802 17.919V17.9205C25.3184 18.2774 25.4733 18.6849 25.4604 19.2419V19.2449C25.4547 19.5013 25.6688 19.718 25.9344 19.7236H25.9468C26.2085 19.7236 26.4258 19.5166 26.4316 19.2635C26.4495 18.4979 26.2014 17.8151 25.699 17.2854C25.193 16.7532 24.4773 16.4553 23.6248 16.3947Z" fill="white"/>
</g>
<defs>
<clipPath id="clip0_2503_7847">
<rect width="20.6207" height="23" fill="white" transform="translate(12 11)"/>
</clipPath>
</defs>
</svg>
