<svg width="27" height="15" viewBox="0 0 27 15" fill="none" xmlns="http://www.w3.org/2000/svg">
<path fill-rule="evenodd" clip-rule="evenodd" d="M11.0519 0.00841135C10.5503 0.0448631 9.91436 0.141896 9.65987 0.220832C9.22291 0.356379 8.67841 0.839791 8.7791 1.00277C8.79761 1.03272 8.89897 1.07325 9.00431 1.09279C9.4772 1.18059 9.87606 1.44885 10.0549 1.79929C10.3604 2.39835 10.4979 4.27198 10.3335 5.59837C10.2248 6.47513 10.1789 6.67837 10.0178 6.99628C9.58568 7.84905 8.59318 7.15869 7.49937 5.24458C7.1101 4.56344 6.01464 2.37726 5.7702 1.79388C5.47477 1.08882 5.38125 0.958994 5.04534 0.788078L4.76182 0.643817L2.62215 0.659182C0.689945 0.673051 0.466285 0.683414 0.315373 0.765856C0.0761422 0.896608 -0.0260466 1.0751 0.00561028 1.30722C0.0394842 1.55589 0.851014 3.35971 1.44904 4.51565C2.61333 6.76612 3.59944 8.40032 4.6536 9.82617C6.20401 11.9233 6.89 12.6037 8.47403 13.6158C9.21369 14.0884 9.74752 14.3528 10.4075 14.5733C11.3142 14.8763 11.709 14.9346 13.0627 14.9656C14.41 14.9964 14.7971 14.9576 15.0826 14.7628C15.3177 14.6024 15.3904 14.3811 15.4343 13.693C15.4776 13.014 15.6102 12.4317 15.7925 12.1207C15.9534 11.8462 16.3029 11.5293 16.4528 11.5219C16.9762 11.4961 17.2692 11.7135 18.3624 12.939C19.3873 14.0879 19.7662 14.426 20.3325 14.6971C20.5877 14.8193 20.9009 14.9433 21.0285 14.9726C21.3378 15.0435 25.5136 14.9638 25.7832 14.8817C26.0501 14.8005 26.3377 14.5184 26.3442 14.3314C26.3622 13.8196 26.2877 13.5889 25.9296 13.0482C25.459 12.3375 25.0546 11.8837 23.6782 10.521C22.2165 9.07398 22.1144 8.93931 22.1124 8.45523C22.1106 8.04884 22.3006 7.73661 23.5838 6.03662C25.394 3.63854 26.1188 2.48022 26.3204 1.66359C26.4386 1.18466 26.3713 0.95358 26.0663 0.790552L25.8492 0.674546L23.2455 0.69187C21.4049 0.704089 20.6046 0.726775 20.5148 0.769207C20.3401 0.851752 20.1548 1.15275 19.9227 1.73149C19.3042 3.27294 18.0309 5.49361 17.1919 6.4941C16.8579 6.89228 16.339 7.2998 16.1659 7.2998C15.9242 7.2998 15.7249 7.14374 15.5739 6.83619L15.4344 6.55221L15.4485 3.87534C15.4637 0.996683 15.4572 0.911663 15.1908 0.531574C14.9284 0.157209 14.2886 0.0288285 12.5729 0.00629743C11.8782 -0.00287997 11.1937 -0.00190034 11.0519 0.00841135Z" fill="#0077FF"/>
</svg>
