<svg width="45" height="45" viewBox="0 0 45 45" fill="none" xmlns="http://www.w3.org/2000/svg">
<circle cx="22.5" cy="22.5" r="22.5" fill="white"/>
<path fill-rule="evenodd" clip-rule="evenodd" d="M19.0519 16.0084C18.5503 16.0449 17.9144 16.1419 17.6599 16.2208C17.2229 16.3564 16.6784 16.8398 16.7791 17.0028C16.7976 17.0327 16.899 17.0732 17.0043 17.0928C17.4772 17.1806 17.8761 17.4489 18.0549 17.7993C18.3604 18.3984 18.4979 20.272 18.3335 21.5984C18.2248 22.4751 18.1789 22.6784 18.0178 22.9963C17.5857 23.8491 16.5932 23.1587 15.4994 21.2446C15.1101 20.5634 14.0146 18.3773 13.7702 17.7939C13.4748 17.0888 13.3812 16.959 13.0453 16.7881L12.7618 16.6438L10.6221 16.6592C8.68995 16.6731 8.46628 16.6834 8.31537 16.7659C8.07614 16.8966 7.97395 17.0751 8.00561 17.3072C8.03948 17.5559 8.85101 19.3597 9.44904 20.5156C10.6133 22.7661 11.5994 24.4003 12.6536 25.8262C14.204 27.9233 14.89 28.6037 16.474 29.6158C17.2137 30.0884 17.7475 30.3528 18.4075 30.5733C19.3142 30.8763 19.709 30.9346 21.0627 30.9656C22.41 30.9964 22.7971 30.9576 23.0826 30.7628C23.3177 30.6024 23.3904 30.3811 23.4343 29.693C23.4776 29.014 23.6102 28.4317 23.7925 28.1207C23.9534 27.8462 24.3029 27.5293 24.4528 27.5219C24.9762 27.4961 25.2692 27.7135 26.3624 28.939C27.3873 30.0879 27.7662 30.426 28.3325 30.6971C28.5877 30.8193 28.9009 30.9433 29.0285 30.9726C29.3378 31.0435 33.5136 30.9638 33.7832 30.8817C34.0501 30.8005 34.3377 30.5184 34.3442 30.3314C34.3622 29.8196 34.2877 29.5889 33.9296 29.0482C33.459 28.3375 33.0546 27.8837 31.6782 26.521C30.2165 25.074 30.1144 24.9393 30.1124 24.4552C30.1106 24.0488 30.3006 23.7366 31.5838 22.0366C33.394 19.6385 34.1188 18.4802 34.3204 17.6636C34.4386 17.1847 34.3713 16.9536 34.0663 16.7906L33.8492 16.6745L31.2455 16.6919C29.4049 16.7041 28.6046 16.7268 28.5148 16.7692C28.3401 16.8518 28.1548 17.1528 27.9227 17.7315C27.3042 19.2729 26.0309 21.4936 25.1919 22.4941C24.8579 22.8923 24.339 23.2998 24.1659 23.2998C23.9242 23.2998 23.7249 23.1437 23.5739 22.8362L23.4344 22.5522L23.4485 19.8753C23.4637 16.9967 23.4572 16.9117 23.1908 16.5316C22.9284 16.1572 22.2886 16.0288 20.5729 16.0063C19.8782 15.9971 19.1937 15.9981 19.0519 16.0084Z" fill="#0077FF"/>
</svg>
