<svg width="23" height="20" viewBox="0 0 23 20" fill="none" xmlns="http://www.w3.org/2000/svg">
<path d="M6.09112 18.4368L6.4667 18.624C7.99809 19.5324 9.74885 20.0072 11.5306 19.9973C17.0159 19.9848 21.5227 15.4799 21.5227 10.0099C21.5227 7.36635 20.4699 4.82767 18.5976 2.95627C16.7279 1.06553 14.1734 0 11.5112 0C6.05106 0 1.55859 4.48061 1.55859 9.925C1.55859 9.96808 1.55859 10.0105 1.55922 10.0536C1.57567 11.9046 2.09483 13.7167 3.06152 15.297L3.31188 15.6715L2.31037 19.3544L6.09112 18.4368V18.4368Z" fill="url(#paint0_linear_1687_23087)"/>
<path d="M17.1073 12.6501L16.4187 12.338C16.4187 12.338 15.4172 11.901 14.7913 11.5889C14.7287 11.5889 14.6661 11.5265 14.6035 11.5265C14.4491 11.5303 14.2983 11.5733 14.1653 11.6514C14.032 11.7294 14.1027 11.7138 13.2264 12.7125C13.1669 12.8292 13.0448 12.9023 12.9134 12.8998H12.8508C12.7567 12.8841 12.6695 12.8406 12.6004 12.7749L12.2874 12.6501C11.6159 12.3666 11.001 11.9648 10.4722 11.4641C10.347 11.3392 10.1592 11.2144 10.034 11.0895C9.57061 10.6469 9.17044 10.1428 8.84471 9.59145L8.7821 9.46661C8.72772 9.3903 8.6855 9.30608 8.65691 9.21692C8.64054 9.10879 8.66269 8.99836 8.7195 8.90482C8.77647 8.81118 8.96989 8.59269 9.15767 8.40544C9.34547 8.21818 9.34547 8.09334 9.47065 7.96849C9.53499 7.87938 9.57946 7.77757 9.60105 7.6699C9.62264 7.56223 9.62086 7.45119 9.59584 7.34426C9.30412 6.53656 8.96982 5.74479 8.59432 4.97227C8.49367 4.81617 8.33686 4.70448 8.15615 4.66016H7.4676C7.34242 4.66016 7.21723 4.72257 7.09203 4.72257L7.02943 4.78499C6.90425 4.84741 6.77906 4.97227 6.65386 5.03469C6.52868 5.0971 6.46608 5.28438 6.3409 5.40922C5.9033 5.96066 5.66118 6.6411 5.65234 7.34426C5.65928 7.83889 5.7657 8.3271 5.96531 8.77997L6.02792 8.96722C6.58997 10.1656 7.37602 11.246 8.34395 12.1507L8.59432 12.4004C8.77652 12.5509 8.94417 12.7181 9.09508 12.8998C10.392 14.0252 11.9325 14.8367 13.5957 15.2718C13.7835 15.3342 14.0339 15.3342 14.2216 15.3966H14.8476C15.1747 15.3805 15.4948 15.2954 15.7865 15.1469C15.9399 15.0777 16.0863 14.994 16.2247 14.8973L16.3499 14.7724C16.4751 14.6476 16.6003 14.5852 16.7254 14.4603C16.8478 14.3516 16.9533 14.2254 17.0384 14.0858C17.1586 13.8061 17.2431 13.5128 17.2888 13.2119V12.7749C17.2326 12.7245 17.1693 12.6825 17.101 12.6501" fill="white"/>
<defs>
<linearGradient id="paint0_linear_1687_23087" x1="11.5407" y1="0" x2="11.5407" y2="19.9975" gradientUnits="userSpaceOnUse">
<stop stop-color="#5EF477"/>
<stop offset="1" stop-color="#13AC30"/>
</linearGradient>
</defs>
</svg>
