<svg width="45" height="45" viewBox="0 0 45 45" fill="none" xmlns="http://www.w3.org/2000/svg">
<circle cx="22.5" cy="22.5" r="22" fill="white" stroke="#C5C7C4"/>
<path d="M17.0911 30.4368L17.4667 30.624C18.9981 31.5324 20.7489 32.0072 22.5306 31.9973C28.0159 31.9848 32.5227 27.4799 32.5227 22.0099C32.5227 19.3664 31.4699 16.8277 29.5976 14.9563C27.7279 13.0655 25.1734 12 22.5112 12C17.0511 12 12.5586 16.4806 12.5586 21.925C12.5586 21.9681 12.5586 22.0105 12.5592 22.0536C12.5757 23.9046 13.0948 25.7167 14.0615 27.297L14.3119 27.6715L13.3104 31.3544L17.0911 30.4368V30.4368Z" fill="url(#paint0_linear_2503_7842)"/>
<path d="M28.1073 24.6501L27.4187 24.338C27.4187 24.338 26.4172 23.901 25.7913 23.5889C25.7287 23.5889 25.6661 23.5265 25.6035 23.5265C25.4491 23.5303 25.2983 23.5733 25.1653 23.6514C25.032 23.7294 25.1027 23.7138 24.2264 24.7125C24.1669 24.8292 24.0448 24.9023 23.9134 24.8998H23.8508C23.7567 24.8841 23.6695 24.8406 23.6004 24.7749L23.2874 24.6501C22.6159 24.3666 22.001 23.9648 21.4722 23.4641C21.347 23.3392 21.1592 23.2144 21.034 23.0895C20.5706 22.6469 20.1704 22.1428 19.8447 21.5914L19.7821 21.4666C19.7277 21.3903 19.6855 21.3061 19.6569 21.2169C19.6405 21.1088 19.6627 20.9984 19.7195 20.9048C19.7765 20.8112 19.9699 20.5927 20.1577 20.4054C20.3455 20.2182 20.3455 20.0933 20.4707 19.9685C20.535 19.8794 20.5795 19.7776 20.601 19.6699C20.6226 19.5622 20.6209 19.4512 20.5958 19.3443C20.3041 18.5366 19.9698 17.7448 19.5943 16.9723C19.4937 16.8162 19.3369 16.7045 19.1562 16.6602H18.4676C18.3424 16.6602 18.2172 16.7226 18.092 16.7226L18.0294 16.785C17.9042 16.8474 17.7791 16.9723 17.6539 17.0347C17.5287 17.0971 17.4661 17.2844 17.3409 17.4092C16.9033 17.9607 16.6612 18.6411 16.6523 19.3443C16.6593 19.8389 16.7657 20.3271 16.9653 20.78L17.0279 20.9672C17.59 22.1656 18.376 23.246 19.344 24.1507L19.5943 24.4004C19.7765 24.5509 19.9442 24.7181 20.0951 24.8998C21.392 26.0252 22.9325 26.8367 24.5957 27.2718C24.7835 27.3342 25.0339 27.3342 25.2216 27.3966H25.8476C26.1747 27.3805 26.4948 27.2954 26.7865 27.1469C26.9399 27.0777 27.0863 26.994 27.2247 26.8973L27.3499 26.7724C27.4751 26.6476 27.6003 26.5852 27.7254 26.4603C27.8478 26.3516 27.9533 26.2254 28.0384 26.0858C28.1586 25.8061 28.2431 25.5128 28.2888 25.2119V24.7749C28.2326 24.7245 28.1693 24.6825 28.101 24.6501" fill="white"/>
<defs>
<linearGradient id="paint0_linear_2503_7842" x1="22.5407" y1="12" x2="22.5407" y2="31.9975" gradientUnits="userSpaceOnUse">
<stop stop-color="#5EF477"/>
<stop offset="1" stop-color="#13AC30"/>
</linearGradient>
</defs>
</svg>
