<svg width="45" height="45" viewBox="0 0 45 45" fill="none" xmlns="http://www.w3.org/2000/svg">
<circle cx="22.5" cy="22.5" r="22.5" fill="#FF5700"/>
<path fill-rule="evenodd" clip-rule="evenodd" d="M20.7789 13.0855C20.5043 13.1338 20.3688 13.2479 20.0753 13.6782C19.6611 14.2854 18.4472 16.6439 18.4472 16.8417C18.4472 16.9467 18.7982 16.9725 20.2311 16.9725H22.0148L22.0761 16.4638C22.1098 16.184 22.1378 15.2903 22.1382 14.4776L22.139 13L21.629 13.0128C21.3484 13.0198 20.9659 13.0525 20.7789 13.0855ZM23.0134 14.8894C23.0134 15.9285 23.0025 16.8114 22.9891 16.8514C22.9757 16.8914 23.7846 16.9359 24.7864 16.9504C26.2855 16.9721 26.608 16.953 26.608 16.8427C26.608 16.6291 25.2815 14.0622 24.9177 13.5716C24.6275 13.1804 24.5306 13.1181 24.1267 13.0629C23.8735 13.0283 23.5195 13 23.3398 13H23.0134V14.8894ZM18.056 14.0688C17.111 14.5656 16.0063 15.4445 15.3626 16.2115C15.0821 16.5458 14.8526 16.855 14.8526 16.8987C14.8526 16.9424 15.4256 16.9659 16.1259 16.9511L17.3992 16.924L17.6236 16.3283C17.8594 15.7025 18.6865 14.0066 18.8571 13.7993C19.0227 13.5982 18.8236 13.6651 18.056 14.0688ZM26.2194 13.7374C26.2194 13.7718 26.3577 14.041 26.5267 14.3355C26.6957 14.6301 27.0226 15.333 27.2532 15.8976L27.6725 16.924L28.9377 16.9511C29.7838 16.9692 30.2027 16.944 30.2027 16.875C30.2027 16.6753 28.5062 15.0199 27.8768 14.6053C27.1655 14.1368 26.2194 13.6414 26.2194 13.7374ZM13.8476 18.5477C13.5482 19.2026 13.1679 20.5905 13.0645 21.4052L13 21.9139H14.655C15.5652 21.9139 16.3426 21.9146 16.3827 21.9156C16.4229 21.9165 16.4672 21.7312 16.4813 21.5038C16.5236 20.8233 16.7966 18.995 16.9373 18.4501L17.0686 17.9414L15.5963 17.9422L14.124 17.943L13.8476 18.5477ZM17.9828 18.3047C17.7926 18.9528 17.569 20.2951 17.5075 21.1568L17.4475 21.9984L19.7447 22.0072L22.0419 22.016V19.9787V17.9414H20.0656H18.0894L17.9828 18.3047ZM22.9811 19.8899C22.9466 20.9616 22.9422 21.8772 22.9715 21.9246C23.0009 21.972 24.0496 22.0108 25.3022 22.0108H27.5796L27.5778 21.599C27.5753 21.0299 27.3294 19.3563 27.1346 18.5829L26.973 17.9414H25.0086H23.0442L22.9811 19.8899ZM27.9682 17.9835C27.9682 18.0067 28.0153 18.1484 28.0728 18.2984C28.2113 18.6596 28.5501 20.9665 28.5506 21.5528L28.5511 22.0152L30.2755 21.9888L32 21.9623L31.9658 21.4779C31.9156 20.7657 31.5104 19.2574 31.1807 18.5546L30.8929 17.9414H29.4306C28.6263 17.9414 27.9682 17.9604 27.9682 17.9835ZM13.0086 23.0523C13.029 23.8247 13.4482 25.4812 13.8544 26.395L14.1019 26.9521H15.5878H17.0735L16.9825 26.6372C16.8256 26.0949 16.6078 24.7106 16.5402 23.8274L16.4755 22.9797H14.7411C13.7872 22.9797 13.0076 23.0124 13.0086 23.0523ZM17.5094 23.779C17.5756 24.6262 17.7816 25.8982 17.9591 26.5561L18.0661 26.9521H20.054H22.0419V24.9659V22.9797H19.7444H17.4471L17.5094 23.779ZM22.9386 24.9601L22.9648 26.9405L24.8667 26.9866C25.9127 27.012 26.8142 27.0038 26.8699 26.9682C27.0695 26.8409 27.5796 24.1677 27.5796 23.2486V22.9797H25.246H22.9123L22.9386 24.9601ZM28.472 24.116C28.3639 25.1362 28.2168 25.9948 28.0153 26.7826L27.9471 27.049L29.3421 27.0476C30.1093 27.0467 30.7873 27.014 30.8489 26.9749C31.1729 26.7688 31.8749 24.513 31.9714 23.3672L32 23.0281L30.2964 23.0017L28.5929 22.9754L28.472 24.116ZM14.8526 28.0092C14.8526 28.1636 15.5775 29.0188 16.1231 29.5083C16.9222 30.2253 18.4848 31.2153 18.8174 31.2153C18.8642 31.2153 18.6703 30.7683 18.3865 30.2222C18.1027 29.676 17.756 28.9348 17.616 28.575L17.3616 27.921H16.1071C15.4172 27.921 14.8526 27.9608 14.8526 28.0092ZM18.4969 28.139C18.6146 28.5481 19.5954 30.4872 19.9925 31.0963C20.4295 31.7664 20.549 31.8358 21.4347 31.9332L22.0419 32V29.9606V27.921H20.238H18.4341L18.4969 28.139ZM22.9596 28.045C22.9333 28.1132 22.9238 29.0179 22.9384 30.0554L22.9648 31.942L23.3049 31.9328C23.4919 31.9276 23.8498 31.8926 24.1002 31.8551C24.5417 31.7887 24.5709 31.7628 25.0582 31.0053C25.3345 30.5756 25.7957 29.7386 26.083 29.1452L26.6053 28.0664L26.0481 28.0043C24.9749 27.8845 23.0114 27.9105 22.9596 28.045ZM28.7454 27.9986L27.6281 28.0278L27.3011 28.8222C27.1212 29.2591 26.7824 29.9602 26.5482 30.3802C26.314 30.8001 26.1223 31.184 26.1223 31.2332C26.1223 31.3791 27.4723 30.6283 28.27 30.0388C28.9265 29.5536 30.2027 28.2313 30.2027 28.0362C30.2027 27.9957 30.1262 27.9642 30.0327 27.966C29.9391 27.9679 29.3599 27.9826 28.7454 27.9986Z" fill="white"/>
</svg>
