<svg width="23" height="16" viewBox="0 0 23 16" fill="none" xmlns="http://www.w3.org/2000/svg">
<path fill-rule="evenodd" clip-rule="evenodd" d="M9.0459 0.0185384C8.05445 0.0343036 5.82195 0.118012 5.02057 0.169517C2.54358 0.328737 1.90605 0.511515 1.16355 1.27532C0.761104 1.68929 0.513603 2.20852 0.367972 2.94402C-0.149024 5.55594 -0.115112 11.1679 0.431073 13.3882C0.67547 14.3817 1.37691 15.1667 2.30692 15.4877C2.86714 15.6811 4.25351 15.8292 6.54975 15.9412C8.1601 16.0196 14.862 16.0196 16.5119 15.9411C18.5216 15.8455 19.7035 15.7376 20.3798 15.5881C21.5268 15.3344 22.3348 14.4809 22.5979 13.2452C22.9071 11.7931 23.0677 8.93145 22.9729 6.56129C22.8216 2.77651 22.5022 1.64415 21.3741 0.892747C20.9491 0.60969 20.6645 0.503767 20.0299 0.392515C18.3653 0.100634 13.758 -0.0562569 9.0459 0.0185384ZM12.1672 6.26493C13.7652 7.17998 15.0983 7.95194 15.1296 7.98038C15.1739 8.02056 14.5506 8.39655 12.3411 9.66252C10.7761 10.5592 9.42986 11.331 9.34948 11.3777L9.20331 11.4625V8.03184C9.20331 6.14494 9.21645 4.60116 9.2325 4.60116C9.2486 4.60116 10.5692 5.34983 12.1672 6.26493Z" fill="#FF0000"/>
</svg>
