<svg width="29" height="28" viewBox="0 0 29 28" fill="none" xmlns="http://www.w3.org/2000/svg">
<path fill-rule="evenodd" clip-rule="evenodd" d="M15.9555 4.05137C15.3445 4.21962 14.7894 4.52479 14.3517 4.93332C13.9178 5.33829 13.8428 5.37185 13.2585 5.42251C12.1487 5.51856 11.0294 6.11395 10.5019 6.88872C10.4417 6.97721 11.7639 7 16.9632 7H23.5L23.3084 6.72296C22.85 6.06036 21.7671 5.51901 20.7157 5.42678C20.1144 5.37408 20.0382 5.34078 19.5803 4.92994C18.8465 4.2717 18.2216 4.03641 17.1225 4.00454C16.6265 3.99012 16.1014 4.01122 15.9555 4.05137Z" fill="#FF5700"/>
<path fill-rule="evenodd" clip-rule="evenodd" d="M0.761059 7.2363C0.443085 7.51389 0.413657 7.85953 0.683356 8.14607C0.789494 8.25878 1.5954 8.6126 2.47437 8.93245C3.35334 9.2523 4.27089 9.61642 4.51337 9.74154C5.23209 10.1125 5.96448 10.8582 8.1547 13.4489L10.2296 15.9033L10.1065 18.232C10.0296 19.6885 10.0216 20.6815 10.0854 20.8833C10.2274 21.3323 10.8083 21.7891 11.4173 21.9307C11.8584 22.0332 11.9983 22.0264 12.4345 21.8808C12.885 21.7306 13.2008 21.4391 15.3214 19.2168L17.7025 16.7214H18.3511C18.9884 16.7214 19.0138 16.732 19.8023 17.3258C21.8886 18.897 21.8837 18.8939 22.0072 18.7011C22.0696 18.6036 22.2881 18.3622 22.4925 18.1645C22.6971 17.9668 22.8644 17.7816 22.8644 17.753C22.8644 17.7243 22.4924 17.4277 22.0378 17.0937C21.5831 16.7598 21.2125 16.4637 21.214 16.4356C21.2155 16.4076 21.4172 16.3038 21.6621 16.2051C21.907 16.1065 22.4027 15.787 22.7635 15.4953C23.3627 15.0109 23.5294 14.7741 24.6875 12.7631L25.9555 10.5613H26.4539C27.3539 10.5613 27.83 9.81219 27.2384 9.32679L26.9833 9.11754H17.9803C9.12405 9.11754 8.97349 9.12072 8.7567 9.31005C8.46749 9.56261 8.47884 9.91971 8.8118 11.0426C8.96093 11.5455 9.08393 11.9957 9.08514 12.043C9.08635 12.0904 8.57385 11.5268 7.94628 10.7909C6.83706 9.48994 6.30604 9.01802 5.3951 8.5229C4.78924 8.19362 1.55197 7 1.26475 7C1.13646 7 0.909851 7.10636 0.761059 7.2363ZM15.4027 16.8523C15.1443 17.2359 11.8811 20.5584 11.7876 20.533C11.6724 20.5017 11.6729 20.2195 11.7925 18.0449L11.8653 16.7214H13.6781C15.1758 16.7214 15.4755 16.7442 15.4027 16.8523Z" fill="#1C1C1C"/>
<path fill-rule="evenodd" clip-rule="evenodd" d="M23.9292 17.1303C23.6758 17.2132 23.3486 17.3598 23.2023 17.456L22.9363 17.6309L24.0941 18.6177C25.4863 19.8039 25.5214 19.8451 25.5214 20.2886C25.5214 20.8759 24.9341 21.2413 24.4269 20.9698C24.288 20.8954 23.7138 20.4383 23.1508 19.954C22.5878 19.4696 22.0655 19.0362 21.9902 18.9909C21.7717 18.8594 21.5065 19.6423 21.5001 20.4379C21.4884 21.8996 22.2736 23.1378 23.5876 23.7296C24.1709 23.9923 24.3523 24.0227 25.1276 23.9886C26.5718 23.9248 27.6015 23.2473 28.1992 21.9676C28.5859 21.1396 28.6017 19.8912 28.2354 19.0863C27.9236 18.4009 27.2376 17.688 26.5451 17.3295C25.8874 16.989 24.649 16.8947 23.9292 17.1303Z" fill="#FF5700"/>
</svg>
