<svg width="29" height="28" viewBox="0 0 29 28" fill="none" xmlns="http://www.w3.org/2000/svg">
<path fill-rule="evenodd" clip-rule="evenodd" d="M14.6177 0.126973C14.3087 0.301314 14.2385 0.435172 14.2365 0.853613C14.2351 1.16649 14.3641 1.35226 15.11 2.11253L15.9851 3.00458V6.40271V9.80095L16.7781 9.76896L17.5711 9.73696L17.6028 6.3089C17.6202 4.42347 17.6037 2.71151 17.5662 2.50441C17.516 2.22756 17.2619 1.88693 16.6048 1.21568C15.4544 0.0406729 15.1076 -0.149448 14.6177 0.126973ZM19.7736 0.222523C19.5678 0.383588 19.4854 0.549223 19.4854 0.802029C19.4854 1.31373 19.8621 1.62879 20.4769 1.63118C21.3154 1.63445 22.4594 1.93525 23.4233 2.40582C24.7279 3.04267 25.9405 4.24913 26.5807 5.54711C27.0567 6.5123 27.356 7.64498 27.3593 8.49372C27.3607 8.87189 27.422 9.04852 27.6143 9.2283C27.9585 9.54989 28.4591 9.53596 28.7805 9.19566C29.0169 8.94524 29.03 8.86526 28.9672 8.05525C28.8766 6.88514 28.6359 5.99722 28.1197 4.92789C26.8944 2.38982 24.5066 0.618873 21.6256 0.111302C20.6227 -0.0654331 20.1014 -0.0340914 19.7736 0.222523ZM19.7736 3.70499C19.1785 4.17078 19.5212 5.1118 20.2859 5.1118C21.2727 5.1118 22.5296 5.76879 23.1378 6.60252C23.529 7.13882 23.8608 8.08409 23.8608 8.66251C23.8608 9.41342 24.8141 9.76101 25.2748 9.17814C25.5423 8.84001 25.5566 8.459 25.3366 7.53114C25.1004 6.53385 24.685 5.80286 23.9257 5.04727C23.1662 4.29179 22.4315 3.87858 21.4291 3.64351C20.4964 3.42466 20.1135 3.43891 19.7736 3.70499ZM20.0323 7.03794C19.6822 7.16842 19.4854 7.44093 19.4854 7.79494C19.4854 8.18258 19.7981 8.59428 20.0927 8.59428C20.1861 8.59428 20.3143 8.74217 20.3776 8.92304C20.5912 9.53237 21.3805 9.67646 21.7745 9.17814C22.0647 8.81117 22.0604 8.53878 21.7551 7.93968C21.4279 7.29727 20.5579 6.84194 20.0323 7.03794ZM5.78532 17.5273C4.67571 17.7875 3.32776 18.7571 2.68424 19.7581C1.14541 22.1514 1.8283 25.4901 4.16127 26.9796C5.74911 27.9933 7.81507 28.0975 9.51798 27.25C11.1148 26.4552 12.138 24.9196 12.3303 23.0293C12.5695 20.677 10.8988 18.267 8.5543 17.5826C7.91341 17.3956 6.46985 17.3667 5.78532 17.5273ZM7.8842 20.1917C8.81442 20.3699 9.64268 21.5199 9.63831 22.6271C9.63524 23.3888 9.36648 23.9864 8.79702 24.4971C8.22921 25.0065 7.71028 25.1707 6.84285 25.1158C5.98407 25.0614 5.37687 24.6811 4.88508 23.8896C4.09116 22.6122 4.76508 20.6899 6.15832 20.2574C6.90739 20.0249 6.99643 20.0215 7.8842 20.1917ZM6.721 21.7635C6.33301 21.9189 6.10527 22.3581 6.1872 22.7926C6.27471 23.2568 6.60593 23.5036 7.14126 23.5036C7.96777 23.5036 8.30982 22.4764 7.66335 21.9353C7.31026 21.6397 7.11752 21.6046 6.721 21.7635ZM21.1412 22.782C20.6134 22.972 19.9583 23.5545 19.6787 24.0825C19.351 24.7015 19.3521 25.7693 19.6812 26.4031C20.6585 28.2848 23.3775 28.312 24.3257 26.4497C25.4057 24.3284 23.3671 21.9806 21.1412 22.782Z" fill="#FF5700"/>
<path fill-rule="evenodd" clip-rule="evenodd" d="M1.26854 3.7485L1 4.01556V11.6504V19.2852L1.47287 18.6475C1.73299 18.2967 2.21669 17.764 2.54791 17.4636C5.82586 14.4902 11.4137 15.6206 13.3166 19.6422C13.6581 20.364 14.0169 21.7554 14.0169 22.3583V22.6349H16.3138H18.6108L19.0758 22.183C19.3316 21.9344 19.8608 21.5797 20.2518 21.3948C20.8936 21.0912 21.0639 21.0588 22.002 21.0612C23.2476 21.0643 24.0087 21.3193 24.774 21.9896C25.2454 22.4024 25.2776 22.414 25.3869 22.2107C25.463 22.0692 25.5023 20.2926 25.5023 16.9892V11.982L25.2384 11.6767L24.9744 11.3713L14.9627 11.3425L4.95111 11.3135L4.72566 11.0285C4.51411 10.7609 4.50033 10.6014 4.50033 8.42339C4.50033 5.95802 4.55141 5.65994 5.00974 5.45219C5.19088 5.37014 6.67666 5.33139 9.64658 5.33139H14.0169V4.63196C14.0169 4.00588 13.9866 3.9088 13.7286 3.70693C13.4451 3.48492 13.3442 3.48133 7.48874 3.48133H1.53697L1.26854 3.7485ZM6.16518 8.35135L6.1958 9.7389L10.1063 9.76752L14.0169 9.79603V8.37997V6.9638H10.0757H6.13455L6.16518 8.35135ZM21.703 15.0986C22.0275 15.4568 22.0423 15.8288 21.746 16.1716L21.474 16.4862H18.9602C16.6416 16.4862 16.4284 16.4701 16.216 16.2789C15.9156 16.0083 15.9098 15.4191 16.2046 15.1258C16.4109 14.9206 16.5691 14.9082 18.9769 14.9082C21.2703 14.9082 21.5481 14.9276 21.703 15.0986Z" fill="#1C1C1C"/>
</svg>
