<svg width="29" height="28" viewBox="0 0 29 28" fill="none" xmlns="http://www.w3.org/2000/svg">
<path fill-rule="evenodd" clip-rule="evenodd" d="M21.9649 9.09854C21.5473 9.25806 21.5 9.51093 21.5 11.5859V13.5767L21.7839 13.7883C22.0554 13.9908 22.1964 14 25.0208 14H27.974L28.2383 13.7493C28.5011 13.5003 28.5028 13.4861 28.4994 11.528C28.4958 9.46671 28.4724 9.35396 27.9982 9.11447C27.7159 8.972 22.3336 8.9578 21.9649 9.09854Z" fill="#FF5700"/>
<path fill-rule="evenodd" clip-rule="evenodd" d="M5.5275 1.09343C3.80791 1.26542 1.3653 2.04976 0.799784 2.61144L0.500006 2.90919V5.03675V7.16441L0.941298 6.76846C1.96703 5.84799 3.38075 5.14986 4.8976 4.81473C5.5349 4.67385 6.06788 4.6409 7.11559 4.67731C8.30383 4.71858 8.63569 4.77292 9.51197 5.06948C11.029 5.58309 11.9266 6.14855 13.122 7.34397C13.9659 8.18784 14.2561 8.56791 14.6759 9.3784C15.4432 10.8603 15.6526 11.7473 15.6526 13.5134C15.6526 15.278 15.4436 16.1643 14.6772 17.6484C14.2497 18.4763 13.9773 18.829 13.0691 19.7312C12.166 20.628 11.805 20.9037 10.9966 21.3138C9.4838 22.0812 8.72554 22.2804 7.0761 22.3441C5.87144 22.3907 5.51847 22.3647 4.73748 22.1712C3.57829 21.884 2.06134 21.1437 1.17984 20.4349L0.500006 19.8884V21.9801C0.500006 24.4659 0.486627 24.4346 1.77798 24.9712C5.81988 26.6506 10.0762 26.2633 13.6849 23.8877C22.2463 18.2518 20.7401 5.39726 11.0959 1.79188C9.54482 1.21194 7.23643 0.922405 5.5275 1.09343ZM13.8247 1.14755C13.9444 1.2383 14.4677 1.60735 14.9877 1.96755C16.119 2.75113 17.7828 4.42191 18.5027 5.49731L19.0233 6.27495H20.3176C21.5467 6.27495 21.6253 6.28835 21.8788 6.54018C22.1118 6.77149 22.1459 6.90243 22.1459 7.56652V8.32764H24.823H27.5L27.4516 6.41C27.4103 4.77433 27.3687 4.40495 27.1684 3.89815C26.6903 2.68891 25.7121 1.73992 24.4626 1.27309C23.8514 1.0447 23.6729 1.03649 18.7195 1.00991C14.1137 0.985066 13.6287 0.998679 13.8247 1.14755ZM22.4265 17.2136C22.4692 17.3474 22.6425 17.9645 22.8116 18.5851C23.2139 20.0622 23.302 20.1467 24.4916 20.1958C25.6783 20.2449 26.1291 20.1586 26.3379 19.8422C26.429 19.7041 26.6663 19.0014 26.865 18.2808L27.2264 16.9705H24.7876H22.3487L22.4265 17.2136Z" fill="#1C1C1C"/>
<path fill-rule="evenodd" clip-rule="evenodd" d="M4.67129 7.21474C3.1969 7.65926 1.88508 8.5541 0.9951 9.72256L0.5 10.3726L0.501069 13.9249L0.502032 17.4771L1.04077 18.185C2.44157 20.0255 4.52722 20.9825 6.91736 20.8814C9.95117 20.7529 12.4803 18.8989 13.4024 16.1275C13.6536 15.3726 13.691 15.0894 13.691 13.9408C13.691 12.7922 13.6536 12.509 13.4024 11.7541C12.7192 9.70071 11.0789 8.07707 8.92792 7.32505C8.28758 7.10115 7.90714 7.0451 6.81041 7.01259C5.64886 6.97817 5.36821 7.00467 4.67129 7.21474ZM8.51208 9.07611C11.4352 10.2393 12.7334 13.5174 11.351 16.2442C10.7103 17.5079 9.34634 18.599 7.94757 18.9666C7.20946 19.1605 6.01572 19.1508 5.30575 18.945C3.26749 18.354 1.92786 16.9138 1.50282 14.8562C0.963761 12.2469 2.7295 9.54765 5.41805 8.87132C6.09188 8.70178 7.8666 8.81917 8.51208 9.07611ZM5.76224 10.4997C3.27155 11.1184 2.24638 14.1758 3.86035 16.1722C4.61909 17.1106 6.07583 17.6623 7.20443 17.4386C8.44716 17.1922 9.31479 16.5643 9.88122 15.5014C10.1457 15.0051 10.1785 14.8332 10.1785 13.9408C10.1785 13.0484 10.1457 12.8765 9.88122 12.3802C9.06964 10.8574 7.39695 10.0937 5.76224 10.4997ZM22.0229 22.6426C21.8971 22.8005 21.731 23.3593 21.5916 24.094C21.1428 26.4596 21.1482 26.6021 21.696 26.8816C22.0019 27.0377 22.0642 27.0385 22.3805 26.8896C22.7943 26.6949 22.7975 26.6863 23.1701 24.7194C23.4791 23.0886 23.4604 22.6987 23.0636 22.4891C22.7059 22.3002 22.2412 22.3687 22.0229 22.6426ZM25.5355 22.6639C25.4136 22.8168 25.314 22.995 25.3142 23.0597C25.3156 23.4418 25.9785 26.5611 26.0854 26.6882C26.4382 27.1078 27.1957 27.0298 27.4576 26.5468C27.6695 26.1561 27.0351 22.8436 26.696 22.5705C26.3442 22.2871 25.8009 22.3309 25.5355 22.6639Z" fill="#FF5700"/>
</svg>
