<svg width="29" height="28" viewBox="0 0 29 28" fill="none" xmlns="http://www.w3.org/2000/svg">
<path fill-rule="evenodd" clip-rule="evenodd" d="M8.10797 0.103478C7.79825 0.228301 7.68039 0.467065 7.58691 1.15952C7.52597 1.61072 7.46231 1.74087 7.27512 1.79648C7.14573 1.83501 6.76408 1.98791 6.42693 2.13635L5.81403 2.40624L5.3032 2.01631C4.56568 1.45336 4.38046 1.49166 3.44282 2.40079C2.40788 3.40428 2.35565 3.61507 2.94744 4.39884L3.39069 4.98585L3.12145 5.56426C2.97334 5.88236 2.85167 6.20089 2.85113 6.27217C2.8495 6.46882 2.64229 6.55849 1.98237 6.64806C1.10088 6.76765 1 6.93808 1 8.30689C1 9.58462 1.1171 9.85483 1.71052 9.94712C1.91827 9.97944 2.24889 10.0306 2.4451 10.0607C2.7644 10.1098 2.8347 10.1907 3.1122 10.8276L3.42236 11.5397L3.09947 11.9427C2.69975 12.4415 2.52356 12.7661 2.52356 13.0039C2.52356 13.1045 2.89934 13.573 3.35859 14.045C4.36174 15.0758 4.55796 15.1181 5.39755 14.4859L5.95158 14.0687L6.49571 14.3213C6.79498 14.4601 7.09817 14.5744 7.16945 14.5752C7.36469 14.5773 7.42922 14.7373 7.53369 15.4783C7.67005 16.4461 7.81229 16.5354 9.21636 16.5354C10.6251 16.5354 10.7625 16.4479 10.9012 15.4629C10.9549 15.0825 11.0139 14.7614 11.0326 14.7493C11.0512 14.7372 11.4197 14.5919 11.8514 14.4263L12.6363 14.1252L13.1457 14.5141C13.8946 15.0859 14.1462 15.0465 15.0045 14.2229C15.3944 13.8489 15.7839 13.4066 15.8701 13.2403C16.0457 12.9015 15.9948 12.7517 15.4444 11.9854L15.1428 11.5657L15.4037 10.9762C15.5471 10.652 15.6922 10.3045 15.7261 10.2039C15.7674 10.0815 15.9604 9.99848 16.3109 9.95256C17.4216 9.80684 17.5415 9.63163 17.5415 8.15486C17.5415 6.90739 17.3648 6.65339 16.4299 6.55751L15.808 6.49374L15.637 5.99173C15.543 5.71553 15.3987 5.36783 15.3163 5.21906C15.1785 4.96985 15.1952 4.90956 15.527 4.45728C15.7252 4.18706 15.9024 3.89258 15.9208 3.8028C15.9986 3.42332 15.7588 3.02818 15.0381 2.34834C14.1285 1.49036 13.9036 1.44922 13.1955 2.01207C12.9299 2.22319 12.6606 2.37174 12.5969 2.34236C12.5333 2.31286 12.1567 2.15724 11.7602 1.9964L11.0392 1.70398L10.9767 1.09379C10.9279 0.617245 10.852 0.429956 10.6306 0.238748C10.3792 0.0217493 10.233 -0.00534836 9.3463 0.000745892C8.79597 0.0045548 8.23878 0.0508059 8.10797 0.103478ZM10.443 5.50952C10.9961 5.73979 11.6737 6.41441 11.953 7.01317C12.4855 8.15421 12.1902 9.49951 11.2097 10.3996C10.6144 10.946 10.0764 11.1426 9.21103 11.1297C7.66853 11.1069 6.33247 9.75188 6.33247 8.21025C6.33247 6.16922 8.54131 4.71803 10.443 5.50952ZM11.382 16.6908C11.031 16.8436 10.9045 17.0415 10.9013 17.4422C10.8999 17.6263 10.7708 17.7278 10.3138 17.9045C9.74656 18.1238 9.72001 18.1247 9.47221 17.9342C9.03778 17.6 8.62848 17.6767 8.10503 18.1905C7.58212 18.7036 7.51944 19.0192 7.84287 19.5098C8.03865 19.8066 8.03908 19.836 7.85375 20.3243C7.68279 20.7745 7.61477 20.8403 7.24182 20.9153C6.64197 21.0359 6.4413 21.3276 6.4413 22.0786C6.4413 22.588 6.4869 22.7434 6.69312 22.9372C6.83166 23.0674 7.03984 23.1746 7.15563 23.1755C7.47787 23.1781 7.64306 23.3241 7.85234 23.7915C8.04169 24.2143 8.04093 24.2229 7.78726 24.5399C7.38602 25.0413 7.44935 25.3544 8.06901 25.934C8.36578 26.2115 8.699 26.4386 8.80968 26.4386C8.92036 26.4386 9.1663 26.3239 9.35642 26.1836L9.70205 25.9286L10.1884 26.1542C10.6051 26.3474 10.6845 26.4372 10.7425 26.7804C10.8355 27.3303 11.1217 27.5544 11.8038 27.611C12.4938 27.6682 12.8432 27.4424 13.019 26.8259C13.1148 26.4896 13.2199 26.385 13.6461 26.2009L14.1581 25.9798L14.4498 26.2092C14.8834 26.5503 15.293 26.503 15.7889 26.0551C16.3353 25.5615 16.4211 25.2279 16.1247 24.7485C15.9009 24.3863 15.9003 24.3707 16.0919 23.8314C16.259 23.3608 16.3275 23.2827 16.573 23.2827C16.7305 23.2827 16.9883 23.1811 17.146 23.0571C17.4026 22.8552 17.4327 22.7581 17.4327 22.132C17.4327 21.3314 17.2149 20.9973 16.6925 20.9973C16.4288 20.9973 16.3558 20.9219 16.1517 20.4389C15.9165 19.8821 15.9165 19.8797 16.1302 19.608C16.248 19.4582 16.3445 19.199 16.3445 19.0321C16.3445 18.6777 15.9135 18.1231 15.453 17.885C15.1566 17.7318 15.0989 17.7358 14.7123 17.9373L14.2929 18.156L13.7407 17.9226C13.3755 17.7683 13.1885 17.6247 13.1885 17.4984C13.1885 16.7261 12.2573 16.3097 11.382 16.6908ZM12.789 20.2751C13.8366 20.7128 14.2569 22.1732 13.6079 23.1203C12.627 24.552 10.3443 24.0738 10.0693 22.379C9.92972 21.5187 10.4058 20.6127 11.1732 20.2784C11.6037 20.0908 12.3442 20.0893 12.789 20.2751Z" fill="#1C1C1C"/>
<path fill-rule="evenodd" clip-rule="evenodd" d="M21.3136 8.76165C20.6514 8.85545 20.414 9.10031 20.414 9.68917C20.414 10.172 20.4131 10.1732 19.7225 10.5399L19.0309 10.9072L18.6645 10.656C18.0007 10.2013 17.7087 10.308 16.8932 11.3032C16.4024 11.9021 16.3889 12.234 16.8346 12.7416L17.173 13.127L16.9849 13.8218C16.8001 14.5045 16.7893 14.5178 16.367 14.5854C16.1218 14.6245 15.818 14.7733 15.6597 14.9316C15.4279 15.1634 15.3931 15.2753 15.4482 15.6093C15.4846 15.8295 15.5149 16.1953 15.5156 16.4225C15.5173 17.0337 15.894 17.3698 16.5774 17.3698H17.1038L17.387 17.9471L17.6701 18.5243L17.4101 18.9537C16.9385 19.733 17.0676 20.0572 18.1721 20.8673C18.7227 21.2712 18.9741 21.2599 19.5027 20.8074L19.9364 20.4361L20.5183 20.633C21.1526 20.8477 21.2206 20.9232 21.3302 21.5332C21.4425 22.1589 21.7469 22.3034 22.7536 22.2091C23.8052 22.1105 23.9952 21.963 24.0811 21.1787L24.1465 20.5801L24.7494 20.2883L25.3522 19.9965L25.8037 20.2611C26.0521 20.4067 26.3689 20.5257 26.5079 20.5257C26.7964 20.5257 27.6446 19.681 27.8679 19.1711C28.0344 18.7912 27.9888 18.6315 27.5781 18.155C27.4086 17.9584 27.2708 17.787 27.2716 17.7741C27.2725 17.7612 27.3647 17.4576 27.4764 17.0995C27.6698 16.4798 27.7014 16.4428 28.1257 16.3377C28.371 16.2768 28.6761 16.1222 28.8038 15.9941C29.0175 15.7795 29.0297 15.6909 28.9578 14.8776C28.8899 14.1112 28.843 13.9653 28.6042 13.7774C28.4349 13.6442 28.1566 13.5588 27.8811 13.5554C27.443 13.5501 27.4266 13.536 27.1291 12.9076L26.8248 12.2653L27.1073 11.8384C27.3142 11.5257 27.3706 11.3349 27.318 11.1253C27.2253 10.756 26.0324 9.75196 25.6863 9.75196C25.544 9.75196 25.2554 9.90301 25.0452 10.0877L24.6627 10.4234L23.9812 10.1876C23.2504 9.93468 23.1389 9.83696 23.1362 9.44779C23.1354 9.31035 23.0144 9.07779 22.8674 8.93087C22.5882 8.65151 22.307 8.62093 21.3136 8.76165ZM23.3653 13.3208C24.2033 13.7586 24.6038 14.4317 24.6038 15.4024C24.6038 16.3225 24.2329 17.0095 23.5063 17.4354C21.8658 18.3968 19.8698 17.2856 19.8698 15.4109C19.8698 13.5894 21.7396 12.4715 23.3653 13.3208Z" fill="#FF5700"/>
</svg>
