<svg width="294" height="48" viewBox="0 0 294 48" fill="none" xmlns="http://www.w3.org/2000/svg">
<g clip-path="url(#clip0_1604_13903)">
<path d="M71.82 41.76C71.82 39.8171 73.2455 38.4 75.1663 38.4C76.1402 38.4 76.9883 38.7474 77.5656 39.4232L76.9793 40.0146C76.4919 39.4795 75.8967 39.2355 75.2026 39.2355C73.7771 39.2355 72.7223 40.3052 72.7223 41.76C72.7223 43.2154 73.7771 44.285 75.2026 44.285C75.8967 44.285 76.4919 44.0317 76.9793 43.4966L77.5656 44.0881C76.9883 44.7633 76.1402 45.12 75.1569 45.12C73.2455 45.12 71.82 43.7029 71.82 41.76" fill="#1C1C1C"/>
<path d="M85.2264 44.285V45.12H80.4384V38.4H85.0945V39.2351H81.3809V41.2991H84.689V42.1151H81.3809V44.285H85.2264V44.285Z" fill="#1C1C1C"/>
<path d="M92.8872 40.7423C92.8872 42.2019 91.7685 43.0845 89.918 43.0845H88.1584V45.12H87.1416V38.4H89.918C91.7685 38.4 92.8872 39.2827 92.8872 40.7423V40.7423ZM91.8704 40.7423C91.8704 39.7824 91.1892 39.2351 89.8878 39.2351H88.1584V42.2495H89.8878C91.1892 42.2495 91.8704 41.7026 91.8704 40.7423" fill="#1C1C1C"/>
<path d="M100.548 43.286C100.548 44.4383 99.676 45.12 97.9728 45.12H94.8024V38.4H97.7846C99.2896 38.4 100.201 39.0045 100.201 40.1278C100.201 40.8666 99.7949 41.3859 99.1215 41.635C100.053 41.8555 100.548 42.4124 100.548 43.286V43.286ZM95.7835 41.3568H97.7147C98.6659 41.3568 99.2007 40.9824 99.2007 40.2621C99.2007 39.5423 98.6659 39.1579 97.7147 39.1579H95.7835V41.3568ZM99.5472 43.2098C99.5472 42.4319 98.9928 42.0861 97.9527 42.0861H95.7835V44.3617H97.9527C98.9928 44.3617 99.5472 43.9968 99.5472 43.2098Z" fill="#1C1C1C"/>
<path d="M103.421 38.4H104.361V43.5843L108.292 38.4H109.166V45.12H108.235V39.9458L104.294 45.12H103.421V38.4V38.4Z" fill="#1C1C1C"/>
<path d="M111.082 41.76C111.082 39.8171 112.745 38.4 114.986 38.4C116.122 38.4 117.111 38.7474 117.785 39.4232L117.101 40.0146C116.532 39.4795 115.838 39.2355 115.028 39.2355C113.365 39.2355 112.134 40.3052 112.134 41.76C112.134 43.2154 113.365 44.285 115.028 44.285C115.838 44.285 116.532 44.0317 117.101 43.4966L117.785 44.0881C117.111 44.7633 116.122 45.12 114.975 45.12C112.745 45.12 111.082 43.7029 111.082 41.76" fill="#1C1C1C"/>
<path d="M123.53 38.4H124.47V43.5843L128.402 38.4H129.276V45.12H128.345V39.9458L124.404 45.12H123.53V38.4V38.4Z" fill="#1C1C1C"/>
<path d="M140.767 43.2133C140.767 44.4192 139.362 45.12 137.78 45.12C136.843 45.12 135.833 44.877 135.022 44.3348L135.385 43.6433C136.041 44.1015 136.884 44.3163 137.655 44.3163C138.769 44.3163 139.716 43.877 139.716 43.0733C139.716 42.4003 139.081 42.045 138.009 42.045H136.385V41.2876H137.936C138.862 41.2876 139.414 40.9231 139.414 40.316C139.414 39.6054 138.612 39.2033 137.613 39.2033C136.957 39.2033 136.229 39.3717 135.584 39.7269L135.25 38.9608C136.01 38.5772 136.854 38.4 137.644 38.4C139.164 38.4 140.466 39.0632 140.466 40.2037C140.466 40.8767 140.028 41.3911 139.31 41.6336C140.216 41.8581 140.767 42.4379 140.767 43.2133Z" fill="#1C1C1C"/>
<path d="M147.486 43.4399H143.603L142.8 45.12H141.725L145.033 38.4H146.066L149.386 45.12H148.29L147.486 43.4399ZM147.121 42.6715L145.545 39.3789L143.969 42.6715H147.121Z" fill="#1C1C1C"/>
<path d="M157.046 38.4V45.12H156.112V39.2351H152.244V45.12H151.301V38.4H157.046V38.4Z" fill="#1C1C1C"/>
<path d="M164.707 38.4V45.12H163.88V42.461C163.278 42.7297 162.693 42.874 162.167 42.874C160.738 42.874 159.919 42.048 159.919 40.5794V38.4H160.738V40.4736C160.738 41.4721 161.298 42.0289 162.259 42.0289C162.785 42.0289 163.345 41.8851 163.88 41.6064V38.4H164.707V38.4Z" fill="#1C1C1C"/>
<path d="M172.384 43.4399H168.501L167.698 45.12H166.622L169.931 38.4H170.964L174.283 45.12H173.187L172.384 43.4399V43.4399ZM172.018 42.6715L170.442 39.3789L168.866 42.6715H172.018V42.6715Z" fill="#1C1C1C"/>
<path d="M175.241 41.76C175.241 39.8171 176.904 38.4 179.145 38.4C180.281 38.4 181.27 38.7474 181.944 39.4232L181.26 40.0146C180.691 39.4795 179.997 39.2355 179.187 39.2355C177.524 39.2355 176.293 40.3052 176.293 41.76C176.293 43.2154 177.524 44.285 179.187 44.285C179.997 44.285 180.691 44.0317 181.26 43.4966L181.944 44.0881C181.27 44.7633 180.281 45.12 179.134 45.12C176.904 45.12 175.241 43.7029 175.241 41.76" fill="#1C1C1C"/>
<path d="M188.647 39.2351H186.258V45.12H185.282V39.2351H182.902V38.4H188.647V39.2351V39.2351Z" fill="#1C1C1C"/>
<path d="M190.562 38.4H191.659V43.5843L196.246 38.4H197.266V45.12H196.179V39.9458L191.581 45.12H190.562V38.4V38.4Z" fill="#1C1C1C"/>
<path d="M107.738 29.8839V7.21423H132.052V13.7042H116.369V29.8839H107.738Z" fill="#1C1C1C"/>
<path d="M142.668 22.7848V29.8839H134.035V7.21423H152.88C161.238 7.21423 163.61 10.5356 163.61 14.7097V15.1975C163.61 19.311 161.147 22.7848 152.88 22.7848H142.668ZM142.668 17.1174H151.847C153.822 17.1174 154.704 16.2938 154.704 15.0451V14.9533C154.704 13.6436 153.883 12.8817 151.847 12.8817H142.668V17.1174Z" fill="#1C1C1C"/>
<path d="M205.158 22.7848V29.8839H196.526V7.21423H215.37C223.728 7.21423 226.1 10.5356 226.1 14.7097V15.1975C226.1 19.311 223.638 22.7848 215.37 22.7848H205.158ZM205.158 17.1174H214.337C216.312 17.1174 217.194 16.2938 217.194 15.0451V14.9533C217.194 13.6436 216.374 12.8817 214.337 12.8817H205.158V17.1174Z" fill="#1C1C1C"/>
<path d="M293.875 7.21423V29.8839H285.303V16.1424L271.14 29.8839H262.508V7.21423H271.079V20.103L284.21 7.21423H293.875V7.21423Z" fill="#1C1C1C"/>
<path d="M259.224 7.21423V29.8839H250.653V16.1424L236.49 29.8839H227.857V7.21423H236.428V20.103L249.559 7.21423H259.224V7.21423Z" fill="#1C1C1C"/>
<path d="M95.2263 26.2275H82.3082C81.2505 28.4607 79.0049 29.8843 76.5387 29.8843H71.8222L81.2491 10.7782C82.3261 8.59577 84.5446 7.21423 86.9737 7.21423H94.6187L106.441 29.8843H96.9893L95.2263 26.2275ZM88.661 12.7597L84.9528 20.5601H92.4607L88.661 12.7597Z" fill="#1C1C1C"/>
<path d="M183.557 26.2275H170.639C169.581 28.4607 167.336 29.8843 164.87 29.8843H160.153L169.58 10.7782C170.657 8.59577 172.876 7.21423 175.305 7.21423H182.949L194.772 29.8843H185.32L183.557 26.2275ZM176.992 12.7597L173.284 20.5601H180.792L176.992 12.7597Z" fill="#1C1C1C"/>
<path d="M278.026 4.88698H274.764L275.281 3.40754C275.918 1.58763 277.632 0.369385 279.556 0.369385H282.818L282.3 1.84882C281.664 3.66873 279.95 4.88698 278.026 4.88698" fill="#1C1C1C"/>
<path d="M71.6652 7.34021H44.9068C39.9014 7.34021 35.8438 11.4083 35.8438 16.4263H62.6019C67.6073 16.4263 71.6652 12.3582 71.6652 7.34021" fill="#FF5700"/>
<path d="M11.0178 25.5559H26.7593C31.7651 25.5559 35.8226 21.4878 35.8226 16.4698H20.0811C15.0754 16.4698 11.0178 20.5379 11.0178 25.5559V25.5559Z" fill="#FF5700"/>
<path d="M66.1569 18.6646H44.9071C39.9017 18.6646 35.8438 22.7326 35.8438 27.7506H57.0939C62.0994 27.7506 66.1569 23.6825 66.1569 18.6646Z" fill="#FF5700"/>
<path d="M5.50891 36.8801H26.7587C31.7645 36.8801 35.822 32.8121 35.822 27.7941H14.5722C9.56679 27.7941 5.50891 31.8621 5.50891 36.8801" fill="#FF5700"/>
<path d="M60.6486 29.9977H44.9071C39.9013 29.9977 35.8438 34.0657 35.8438 39.0837H51.5853C56.5907 39.0837 60.6486 35.0157 60.6486 29.9977Z" fill="#FF5700"/>
<path d="M0 48.2133H26.7584C31.7638 48.2133 35.8214 44.1453 35.8214 39.1273H9.06331C4.05788 39.1273 0 43.1954 0 48.2133H0Z" fill="#FF5700"/>
</g>
<defs>
<clipPath id="clip0_1604_13903">
<rect width="294" height="48" fill="white"/>
</clipPath>
</defs>
</svg>
