<svg width="28" height="28" viewBox="0 0 28 28" fill="none" xmlns="http://www.w3.org/2000/svg">
<path fill-rule="evenodd" clip-rule="evenodd" d="M3.95207 1.19045C3.8277 1.29525 3.69414 1.51432 3.65542 1.67745C3.59887 1.91512 3.6505 2.0393 3.91576 2.3032C4.09777 2.48429 4.32431 2.6324 4.41915 2.6324C4.51705 2.6324 4.59165 2.72382 4.59165 2.84374C4.59165 2.96008 4.39475 4.75039 4.15411 6.82223C3.91346 8.89407 3.71657 10.6522 3.71657 10.729C3.71657 10.8059 3.50742 10.9304 3.25168 11.0059C2.66439 11.1789 1.43097 11.7894 0.810758 12.2141C-0.0425532 12.7981 -0.2191 13.3095 0.266022 13.792C0.632571 14.1568 0.940927 14.128 1.58389 13.6691C3.03422 12.6339 4.49057 12.1695 6.28711 12.1695C9.86235 12.1695 12.7554 14.3151 13.8978 17.8137C14.1045 18.447 14.149 18.8365 14.1614 20.1223C14.1742 21.4595 14.2035 21.699 14.3779 21.8907C14.8068 22.3621 15.7489 22.0345 15.7489 21.4139C15.7489 20.8483 15.8197 20.8065 16.7762 20.8065H17.6709L18.0272 20.0878C18.6525 18.8258 19.8205 17.7947 21.1723 17.3108C22.0835 16.9847 23.7437 16.9847 24.6549 17.3108C25.8845 17.7509 27.1433 18.7962 27.662 19.8078C27.7902 20.0578 27.9187 20.2623 27.9475 20.2623C27.9764 20.2623 28 18.4558 28 16.2478C28 12.459 27.9883 12.2188 27.7912 11.9764C27.5931 11.7328 27.5049 11.7176 26.0928 11.6837L24.6033 11.648L24.6336 10.0513L24.6638 8.45463L25.2909 8.39902C25.925 8.34287 26.3173 8.10454 26.3639 7.74726C26.4555 7.0438 26.1325 6.76782 25.2178 6.76782C24.3951 6.76782 24.0164 6.88927 23.5838 7.29171C23.0442 7.79362 22.9683 8.12456 22.9683 9.97472V11.665H20.8044H18.6406L17.5179 7.23033C16.9005 4.79131 16.3976 2.75886 16.4003 2.71402C16.403 2.66918 16.5797 2.6324 16.793 2.6324C17.5816 2.6324 18.0087 1.74503 17.4647 1.23659L17.2115 1H10.6949C4.64776 1 4.16209 1.01371 3.95207 1.19045ZM11.7017 7.14871V11.665H11.3429C11.1454 11.665 10.5913 11.5003 10.1112 11.2988C8.94516 10.8095 7.82867 10.5652 6.50588 10.51C5.55062 10.4701 5.41411 10.4404 5.42833 10.2757C5.43719 10.1719 5.63343 8.4098 5.86412 6.35972L6.28372 2.6324H8.99274H11.7017V7.14871ZM14.7528 3.0405C14.8114 3.26501 15.3067 5.2116 15.8536 7.36637C16.4005 9.52114 16.8747 11.3698 16.9074 11.4746C16.9624 11.6507 16.8303 11.665 15.1546 11.665H13.3424V7.14871V2.6324H13.9945H14.6466L14.7528 3.0405Z" fill="#1C1C1C"/>
<path fill-rule="evenodd" clip-rule="evenodd" d="M5.31613 14.0952C1.26452 15.0013 -0.843435 19.2468 0.938881 22.9112C1.97147 25.0344 3.89523 26.3064 6.24656 26.421C8.16091 26.5141 9.63465 25.9604 10.9579 24.6506C14.8331 20.815 12.3622 14.3089 6.90856 13.9881C6.34752 13.955 5.76877 13.994 5.31613 14.0952ZM7.93634 17.5761C9.73298 18.482 10.1148 20.8953 8.68628 22.3167C7.53599 23.461 5.61213 23.461 4.46184 22.3167C2.80674 20.6699 3.6105 17.8968 5.91775 17.294C6.43864 17.158 7.36305 17.2872 7.93634 17.5761ZM6.00198 18.9916C4.70697 19.5516 5.15392 21.5509 6.57406 21.5509C8.01007 21.5509 8.44093 19.5351 7.12208 18.9869C6.65916 18.7944 6.45571 18.7953 6.00198 18.9916ZM22.263 18.9722C21.0809 19.3054 20.0516 20.2255 19.6399 21.3172C19.3197 22.1664 19.3733 23.5403 19.7572 24.326C20.7962 26.4517 23.5821 27.1027 25.5328 25.6754C26.8232 24.7313 27.3442 22.869 26.7558 21.3043C26.1078 19.5813 23.9946 18.4845 22.263 18.9722ZM23.7942 22.1641C24.2545 22.7462 23.9307 23.4445 23.2006 23.4445C22.4704 23.4445 22.1466 22.7462 22.6069 22.1641C22.7713 21.9562 22.9344 21.8774 23.2006 21.8774C23.4667 21.8774 23.6298 21.9562 23.7942 22.1641Z" fill="#FF5700"/>
</svg>
