<svg width="30" height="28" viewBox="0 0 30 28" fill="none" xmlns="http://www.w3.org/2000/svg">
<path fill-rule="evenodd" clip-rule="evenodd" d="M2.62772 1.07771C1.80962 1.68197 1.05244 2.27512 0.945289 2.39582C0.505106 2.89124 0.617936 3.09367 3.10533 6.27373C4.4006 7.92966 5.61333 9.44367 5.80034 9.63816C6.23195 10.087 6.58191 10.0919 7.18638 9.65753C7.44223 9.47371 7.69696 9.35073 7.75232 9.38414C7.80779 9.41766 8.13213 9.80087 8.47296 10.2358L9.09292 11.0266L8.35401 13.1484C7.83341 14.6435 7.63704 15.3508 7.68961 15.5425C7.73071 15.6921 8.44389 16.6802 9.27458 17.7383L10.7848 19.6621L11.5158 19.1214C12.7421 18.2145 14.2945 17.556 15.8353 17.2894C16.6255 17.1526 18.6501 17.1467 19.3512 17.2792C19.6269 17.3312 19.8726 17.3543 19.8972 17.3304C20.0006 17.2303 19.5173 15.7505 19.1178 14.9439C18.7447 14.1903 16.9207 11.7299 15.3863 9.91025C14.9121 9.3479 14.9388 9.34953 12.3237 9.72131C11.2652 9.87172 10.3675 9.95749 10.3287 9.91177C9.86123 9.35998 9.10406 8.34204 9.10406 8.26531C9.10406 8.21111 9.2327 8.08432 9.38998 7.98365C9.54725 7.88297 9.7728 7.7059 9.8912 7.5902C10.3635 7.12874 10.2533 6.9361 7.53947 3.47383C6.12758 1.67261 4.87776 0.149347 4.76214 0.088943C4.35159 -0.125789 4.09797 -0.00835593 2.62772 1.07771Z" fill="#FF5700"/>
<path fill-rule="evenodd" clip-rule="evenodd" d="M23.1587 2.22037C22.8901 2.49431 22.6856 2.75824 22.7045 2.80688C22.7233 2.85543 23.0205 3.11859 23.3649 3.39166L23.9911 3.88806L24.2541 3.61455C24.3986 3.46414 24.6808 3.24223 24.8809 3.12131C25.0811 3.00039 25.2448 2.86772 25.2448 2.82648C25.2448 2.78512 25.0273 2.51978 24.7613 2.2367C24.1164 1.55038 23.8187 1.54733 23.1587 2.22037ZM19.4123 3.68911L19.1188 3.91461V6.45287C19.1188 9.40906 19.2304 9.96183 20.046 11.0444C20.4695 11.6066 21.7144 12.6088 21.8385 12.4876C21.8641 12.4625 21.7834 12.0259 21.6591 11.5172C21.2095 9.67756 21.5284 7.41269 22.4673 5.77787C22.6471 5.46454 22.7944 5.16089 22.7944 5.1032C22.7944 4.92961 21.3743 3.99461 20.6973 3.72263C19.9173 3.40907 19.7812 3.40548 19.4123 3.68911ZM26.7892 3.91603C25.0586 4.75656 23.7728 6.34665 23.2834 8.25159C22.9231 9.65361 23.2638 11.9898 23.9294 12.6821C24.2289 12.9937 24.6013 12.9996 25.4897 12.7072C26.3081 12.4378 26.9258 12.039 27.5506 11.3767C28.614 10.2495 28.809 9.47404 28.809 6.37418V3.99776L28.5356 3.73068C28.1583 3.36195 27.8662 3.39296 26.7892 3.91603ZM26.5573 14.0864C26.1467 14.2966 24.9787 14.5647 24.4734 14.5647C24.2199 14.5647 23.8325 14.4912 23.6126 14.4014C23.3926 14.3117 23.1945 14.2382 23.1723 14.2382C23.15 14.2382 23.1186 15.6817 23.1024 17.446L23.0728 20.6537L22.3584 20.1679C19.9241 18.5124 16.5336 18.3513 13.7318 19.7582C12.9256 20.163 12.5113 20.4665 11.7368 21.2201L10.7593 22.1711L9.95466 21.7473C8.93986 21.2127 8.05325 20.986 6.97808 20.986C3.74342 20.986 1.04718 23.3769 0.778528 26.4835C0.713258 27.2367 0.724731 27.2928 0.99862 27.5604L1.28744 27.8426H14.9976H28.7078L28.9811 27.5754L29.2546 27.3084V24.4825C29.2546 22.9284 29.2234 21.5775 29.1854 21.4806C28.9268 20.8222 26.5721 20.8176 24.9942 21.4726C24.8156 21.5467 24.7993 21.4567 24.7993 20.399V19.2446H25.6705C27.1943 19.2446 28.1569 18.7237 28.7166 17.5963C29.2353 16.5516 29.4194 15.0609 29.0872 14.5972C28.7809 14.1701 27.0691 13.8244 26.5573 14.0864Z" fill="#1C1C1C"/>
</svg>
