<svg width="29" height="28" viewBox="0 0 29 28" fill="none" xmlns="http://www.w3.org/2000/svg">
<path fill-rule="evenodd" clip-rule="evenodd" d="M6.5971 0.19048C6.42347 0.337095 5.04794 3.50363 5.04794 3.75669C5.04794 3.78576 5.87777 3.80959 6.89194 3.80959H8.73594L9.11852 1.9048L9.50111 0H8.1619C7.04532 0 6.78516 0.0316741 6.5971 0.19048ZM11.1205 0.244902C11.0499 0.541942 10.4087 3.71936 10.4087 3.77215C10.4087 3.79272 11.2703 3.80959 12.3233 3.80959H14.2378V1.9048V0H12.7083C11.2123 0 11.1774 0.00533344 11.1205 0.244902ZM15.7695 1.9048V3.80959H17.6841C18.7371 3.80959 19.5986 3.79272 19.5986 3.77215C19.5986 3.71936 18.9574 0.541942 18.8869 0.244902C18.83 0.00533344 18.7951 0 17.2991 0H15.7695V1.9048ZM20.8888 1.9048L21.2714 3.80959H23.1154C24.1296 3.80959 24.9594 3.78576 24.9594 3.75669C24.9594 3.50363 23.5839 0.337095 23.4103 0.19048C23.2222 0.0316741 22.962 0 21.8455 0H20.5062L20.8888 1.9048ZM3.65687 7.15757C3.28293 8.09996 2.94531 8.95657 2.90669 9.06139C2.84116 9.23913 2.99706 9.25187 5.23928 9.25187H7.64223L7.98619 7.53755C8.17535 6.59473 8.33016 5.73757 8.33016 5.63276C8.33005 5.45828 8.16244 5.44239 6.33343 5.44326L4.33681 5.44423L3.65687 7.15757ZM10.0271 5.68478C9.95612 5.98302 9.31468 9.16131 9.31468 9.21443C9.31468 9.235 10.4236 9.25187 11.7789 9.25187H14.243L14.2131 7.37428L14.1831 5.4967L12.1346 5.46709L10.0859 5.43749L10.0271 5.68478ZM15.8425 5.51488C15.8023 5.55471 15.7695 6.41187 15.7695 7.41967V9.25187H18.2311C19.585 9.25187 20.6927 9.235 20.6927 9.21443C20.6927 9.16164 20.0515 5.98422 19.9809 5.68718C19.9231 5.44424 19.9067 5.44228 17.9191 5.44228C16.817 5.44228 15.8825 5.47493 15.8425 5.51488ZM21.6772 5.63276C21.6772 5.73757 21.832 6.59473 22.0212 7.53755L22.3651 9.25187H24.7681C27.0103 9.25187 27.1662 9.23913 27.1007 9.06139C27.062 8.95657 26.7244 8.09996 26.3505 7.15757L25.6705 5.44423L23.6739 5.44326C21.8449 5.44239 21.6773 5.45828 21.6772 5.63276ZM2.10903 11.075C1.84274 11.572 1 13.7858 1 13.9886C1 14.3135 1.37525 14.673 1.79274 14.7482C1.98857 14.7835 3.13337 14.798 4.33681 14.7805L6.52489 14.7486L6.87607 13.0615C7.06928 12.1336 7.22934 11.2642 7.23164 11.1295L7.23601 10.8846H4.72356C2.4426 10.8846 2.20169 10.9021 2.10903 11.075ZM8.93297 11.1275C8.82062 11.5998 8.22065 14.6199 8.22065 14.7129C8.22065 14.7644 9.56215 14.7934 11.2019 14.7775L14.1831 14.7486V12.8438V10.939L11.5874 10.9098L8.99161 10.8806L8.93297 11.1275ZM15.818 11.0247C15.7882 11.1019 15.7775 11.9714 15.794 12.9568L15.8242 14.7486L18.8055 14.7775C20.4452 14.7934 21.7867 14.7644 21.7867 14.7129C21.7867 14.6201 21.1871 11.6012 21.0749 11.1295L21.0167 10.8846H18.4444C16.4466 10.8846 15.86 10.9159 15.818 11.0247ZM22.7757 11.1275C22.778 11.2632 22.9381 12.1336 23.1313 13.0615L23.4825 14.7486L25.6705 14.7805C28.1391 14.8164 28.4805 14.7804 28.789 14.4509C29.1055 14.1129 29.0553 13.8166 28.4242 12.2995L27.8584 10.939L25.3149 10.9098L22.7713 10.8805L22.7757 11.1275Z" fill="#FF5700"/>
<path fill-rule="evenodd" clip-rule="evenodd" d="M1.21944 16.9431C0.943308 17.2923 0.930179 17.7792 1.16649 18.9194C1.70716 21.5289 3.62053 23.6421 6.16766 24.4425C6.63712 24.5901 7.14169 24.7108 7.28905 24.7108C7.54768 24.7108 7.55687 24.7368 7.55687 25.4727V26.2347H4.54335H1.52971L1.26123 26.5019C0.918911 26.8423 0.918911 27.2597 1.26123 27.6001L1.52971 27.8673H14.9963H28.4629L28.7314 27.6001C28.8791 27.4532 29 27.2061 29 27.051C29 26.8959 28.8791 26.6488 28.7314 26.5019L28.4629 26.2347H25.4493H22.4358V25.4727C22.4358 24.7368 22.445 24.7108 22.7036 24.7108C22.851 24.7108 23.3555 24.5901 23.825 24.4425C26.3721 23.6421 28.2855 21.5289 28.8262 18.9194C29.0625 17.7792 29.0493 17.2923 28.7732 16.9431C28.5714 16.6877 28.4713 16.6562 27.8608 16.6562C26.9382 16.6562 25.6578 16.9968 24.701 17.4968C23.7701 17.9832 22.5609 19.0761 21.9952 19.9426L21.5906 20.5622L21.0688 19.8024C19.8129 17.9737 17.7839 16.8053 15.6527 16.6834C14.8468 16.6372 14.6881 16.6582 14.4624 16.8407C14.2295 17.029 14.2037 17.1321 14.2178 17.8164C14.2822 20.9362 16.7146 23.8433 19.8813 24.5853L20.74 24.7865L20.7724 25.5106L20.8047 26.2347H19.2134H17.622L17.6199 25.8809C17.6181 25.562 17.5492 25.4872 16.9203 25.1214C16.5366 24.8983 15.9473 24.4652 15.6105 24.159L14.9983 23.6023L14.3459 24.1897C13.9871 24.5127 13.3973 24.9458 13.0354 25.1521C12.4452 25.4884 12.3768 25.5637 12.3739 25.8809L12.3706 26.2347H10.7792H9.18797L9.22025 25.5045L9.25263 24.7743L9.96375 24.635C10.9664 24.4384 12.5102 23.6524 13.3006 22.9361L13.957 22.3413L13.6628 21.7573C12.9022 20.2474 12.5894 19.1079 12.5894 17.8475V17.068L12.2886 17.1426C11.3366 17.3784 9.75053 18.6237 8.95844 19.7573L8.39917 20.5577L7.99602 19.9403C7.4316 19.0759 6.22171 17.9828 5.29167 17.4968C4.33482 16.9968 3.05447 16.6562 2.13187 16.6562C1.5214 16.6562 1.42129 16.6877 1.21944 16.9431Z" fill="#1C1C1C"/>
</svg>
