<svg width="320" height="100" viewBox="0 0 320 100" fill="none" xmlns="http://www.w3.org/2000/svg">
<g clip-path="url(#clip0_1584_35218)">
<path fill-rule="evenodd" clip-rule="evenodd" d="M61.3673 73.4663C66.6106 73.4663 71.9509 73.4347 77.1954 73.4347C77.6702 73.4394 78.862 72.7622 78.8796 72.0698C78.9685 68.7598 79.0293 66.9633 78.8878 64.4838C78.8386 63.6101 77.8924 62.6171 76.9497 62.5961L75.2293 62.5563C75.2 59.9821 75.1708 57.4078 75.1416 54.8323C75.1778 54.561 75.3802 54.437 75.6012 54.3938C80.4258 54.4183 88.7123 54.444 90.0375 54.3446C91.3638 54.244 91.9018 53.3516 91.8959 52.6183C91.8831 50.6546 92.0024 48.6709 91.8538 46.747C91.8012 46.0581 90.9918 45.2148 90.2468 45.216L75.1416 45.2592L75.1837 38.8066L87.6761 38.6382C88.2889 39.3926 89.117 40.8791 90.1275 40.8955C91.5427 40.9189 93.1006 40.9645 93.5895 40.8686C94.269 40.7341 95.1299 39.4592 95.1556 38.7668C95.2573 36.0101 95.2328 33.1785 95.1743 30.4897C95.1533 29.5189 93.6901 28.7902 92.6421 28.8008L61.0433 29.1364C60.517 29.1411 60.0106 29.7095 60.0106 30.1949V38.8206C60.0106 39.9388 61.5334 40.9563 62.738 41.0323L63.9182 41.1049C63.9182 48.2277 63.9825 55.4464 63.9825 62.5692L62.3649 62.5867C59.193 62.6207 60.1416 66.4733 60.1076 72.1493C60.1053 72.6464 60.7345 73.4663 61.3673 73.4663ZM102.377 73.1224C107.474 73.2207 111.739 73.1879 116.984 73.1879C117.46 73.1938 118.701 72.4113 118.717 71.7248C118.797 68.4171 118.694 67.0663 118.774 64.5902C118.802 63.7248 117.954 62.3797 116.935 62.3341L116.173 62.3002C116.144 59.7259 116.156 59.4897 116.126 56.9142C116.129 56.9072 116.247 56.8709 116.328 56.9797C117.568 58.6616 125.859 72.3505 127.574 73.1049C127.663 73.1446 127.984 73.2183 128.149 73.2195C131.765 73.2569 140.722 73.2043 142.007 73.1119C142.38 73.085 143.144 72.4581 143.139 71.5201C143.128 68.8885 143.17 64.5481 143.02 64.0359C142.096 60.8791 138.482 63.2183 137.808 61.5329C137.551 60.8897 129.602 48.9774 129.344 48.3318C129.324 48.2838 129.322 48.2195 129.351 48.1821C132.059 44.6873 137.489 40.0323 137.482 38.6546L137.443 30.6546C137.437 29.3318 136.125 28.6417 135.4 28.6417L125.575 28.644C124.784 28.644 121.99 28.6113 121.268 28.7095C120.546 28.8078 120.31 29.5154 120.323 30.3013C120.372 33.0698 120.267 36.6511 120.321 39.4206C121.464 39.0721 122.263 40.7423 121.772 41.2394L115.787 47.2955L115.802 30.8955C115.804 29.7329 115.267 28.6592 113.526 28.6557L102.164 28.6242C101.637 28.63 100.938 29.368 100.935 29.8511L100.877 38.5037C100.863 40.7388 101.918 40.713 103.747 40.6873L104.613 40.6745C104.613 47.7973 104.698 55.1821 104.698 62.3037L103.349 62.3189C100.181 62.3528 101.454 66.1552 101.244 71.8043C101.227 72.2979 101.744 73.1107 102.377 73.1224ZM150.683 73.0733C155.926 73.0733 161.267 73.0405 166.51 73.0405L179.202 73.0207C179.768 73.0195 181.037 72.6663 181.037 71.7224L181.023 58.844C181.022 57.6405 180.404 56.9212 178.997 56.9329L172.832 56.9867C172.172 56.9926 171.795 57.4663 171.786 58.0522L171.726 61.7166C171.723 61.9505 171.499 62.0885 171.349 62.0897L164.545 62.1633C164.516 59.5891 164.487 57.0136 164.456 54.4394V44.8651L164.539 40.6546L166.178 40.5949C166.984 40.6113 168.197 39.9259 168.192 38.7914L168.184 37.0382C168.173 34.2826 168.192 32.7411 168.139 30.0546C168.119 29.0885 167.067 28.5622 166.021 28.5727L150.358 28.7423C149.833 28.7481 149.159 29.3177 149.154 29.8019L149.046 38.837C149.025 40.706 149.938 40.6206 152.054 40.6382L153.147 40.6475C153.147 47.7704 153.221 55.0534 153.221 62.175L151.68 62.1926C150.468 62.2066 149.711 62.2055 149.656 63.278C149.566 65.0452 149.705 68.4066 149.625 71.8312C149.613 72.3259 150.049 73.0733 150.683 73.0733ZM180.242 28.4429C181.699 28.5236 183.073 29.1388 184.11 30.1774C185.102 31.168 185.706 32.4628 185.83 33.8464H185.855V34.706L185.844 34.7107C185.764 36.1692 185.149 37.5411 184.11 38.5797C183.119 39.5704 181.823 40.175 180.441 40.299V40.3236H179.581L179.577 40.313C178.118 40.2323 176.746 39.6171 175.708 38.5785C174.717 37.5879 174.112 36.2932 173.988 34.9095H173.964V34.0499L173.974 34.0452C174.055 32.5867 174.67 31.2148 175.709 30.1774C176.699 29.1856 177.994 28.5809 179.378 28.4569V28.4323H180.237L180.242 28.4429ZM179.91 29.3364V29.3376H179.909V29.3364C178.522 29.3364 177.262 29.9025 176.347 30.816C175.434 31.7306 174.868 32.9902 174.868 34.3774L174.869 34.3785H174.868C174.868 35.7657 175.434 37.0253 176.347 37.9388C177.261 38.8522 178.522 39.4195 179.909 39.4195V39.4183L179.91 39.4195C181.297 39.4195 182.557 38.8522 183.47 37.9388C184.384 37.0253 184.951 35.7657 184.951 34.3785H184.95V34.3774H184.951C184.95 32.9902 184.384 31.7306 183.47 30.8171C182.557 29.9037 181.297 29.3364 179.91 29.3364ZM178.418 32.1949V33.9364H180.212C180.442 33.9364 180.682 33.8967 180.877 33.7692C181.012 33.6815 181.116 33.5657 181.135 33.4019C181.145 33.3013 181.166 33.1668 181.166 33.0651V32.9821C181.166 32.7622 181.129 32.4897 180.922 32.3668C180.705 32.2382 180.451 32.1949 180.202 32.1949H178.418ZM181.626 34.4043C181.809 34.5376 181.988 34.7037 182.077 34.8943C182.207 35.1715 182.215 35.6733 182.215 35.975C182.215 36.2171 182.215 36.5493 182.274 36.7844C182.304 36.9107 182.367 37.0125 182.473 37.092L182.543 37.1446V37.6113H181.297L181.254 37.4978C181.202 37.3657 181.166 37.2277 181.138 37.0885C181.113 36.9727 181.09 36.8511 181.08 36.7353C181.071 36.6628 181.066 36.5891 181.066 36.5154V36.0171C181.066 35.7949 181.048 35.3388 180.87 35.1739C180.708 35.0218 180.459 34.9867 180.244 34.9867H178.418V37.6113H177.276V31.1446H180.186C180.695 31.1446 181.242 31.2195 181.688 31.4791C182.184 31.768 182.309 32.347 182.309 32.8815C182.309 33.1961 182.274 33.568 182.118 33.8475C182.002 34.0546 181.818 34.244 181.626 34.4043ZM229.066 56.154C228.395 56.2943 227.701 56.3692 226.99 56.3692C221.442 56.3692 216.917 51.8452 216.917 46.2978C216.917 45.7809 216.957 45.2721 217.033 44.775C225.68 43.5376 230.011 50.74 229.066 56.154ZM226.99 36.2265C232.537 36.2265 237.061 40.7505 237.061 46.2978C237.061 50.4721 234.499 54.0663 230.868 55.5902C231.013 54.5867 233.333 44.4791 226.372 36.2452C226.577 36.2335 226.783 36.2265 226.99 36.2265ZM215.208 45.4171C211.592 46.947 209.042 50.5353 209.042 54.699C209.042 60.2464 213.566 64.7704 219.113 64.7704C219.416 64.7704 219.716 64.7563 220.013 64.7294V64.7306C216.678 60.8534 214.659 55.8171 214.659 50.3247C214.659 48.6394 214.849 46.9961 215.208 45.4171ZM223.136 32.9271C222.669 33.2932 222.669 33.2932 223.136 32.9271V32.9271ZM223.139 67.7236C219.374 70.685 214.63 72.4557 209.488 72.4557C197.298 72.4557 187.354 62.5131 187.354 50.3247C187.354 38.1341 197.298 28.1914 209.488 28.1914C214.63 28.1914 219.374 29.961 223.139 32.9236C226.904 29.961 231.648 28.1914 236.791 28.1914C248.98 28.1914 258.923 38.1341 258.923 50.3247C258.923 62.5131 248.98 72.4557 236.791 72.4557C231.628 72.4557 226.911 70.7049 223.139 67.7236Z" fill="#0061A2"/>
</g>
<defs>
<clipPath id="clip0_1584_35218">
<rect width="200" height="45" fill="white" transform="translate(60 28)"/>
</clipPath>
</defs>
</svg>
