<svg width="199" height="45" viewBox="0 0 199 45" fill="none" xmlns="http://www.w3.org/2000/svg">
<path fill-rule="evenodd" clip-rule="evenodd" d="M1.36729 45.4663C6.61056 45.4663 11.9509 45.4347 17.1954 45.4347C17.6702 45.4394 18.862 44.7622 18.8796 44.0698C18.9685 40.7598 19.0293 38.9633 18.8878 36.4838C18.8386 35.6101 17.8924 34.6171 16.9497 34.5961L15.2293 34.5563C15.2 31.9821 15.1708 29.4078 15.1416 26.8323C15.1778 26.561 15.3802 26.437 15.6012 26.3938C20.4258 26.4183 28.7123 26.444 30.0375 26.3446C31.3638 26.244 31.9018 25.3516 31.8959 24.6183C31.8831 22.6546 32.0024 20.6709 31.8538 18.747C31.8012 18.0581 30.9918 17.2148 30.2468 17.216L15.1416 17.2592L15.1837 10.8066L27.6761 10.6382C28.2889 11.3926 29.117 12.8791 30.1275 12.8955C31.5427 12.9189 33.1006 12.9645 33.5895 12.8686C34.269 12.7341 35.1299 11.4592 35.1556 10.7668C35.2573 8.01012 35.2328 5.17854 35.1743 2.48965C35.1533 1.51889 33.6901 0.790237 32.6421 0.800763L1.04331 1.13644C0.516993 1.14111 0.0105604 1.70954 0.0105604 2.19492V10.8206C0.0105604 11.9388 1.53337 12.9563 2.73805 13.0323L3.91816 13.1049C3.91816 20.2277 3.98249 27.4464 3.98249 34.5692L2.36495 34.5867C-0.806983 34.6207 0.141555 38.4733 0.107636 44.1493C0.105297 44.6464 0.734537 45.4663 1.36729 45.4663ZM42.3766 45.1224C47.4737 45.2207 51.7392 45.1879 56.9837 45.1879C57.4597 45.1938 58.7006 44.4113 58.717 43.7248C58.7965 40.4171 58.6936 39.0663 58.7743 36.5902C58.8024 35.7248 57.9544 34.3797 56.9345 34.3341L56.1731 34.3002C56.1439 31.7259 56.1556 31.4897 56.1264 28.9142C56.1287 28.9072 56.2468 28.8709 56.3275 28.9797C57.5685 30.6616 65.8585 44.3505 67.5743 45.1049C67.6632 45.1446 67.9837 45.2183 68.1486 45.2195C71.7649 45.2569 80.7217 45.2043 82.007 45.1119C82.3801 45.085 83.1439 44.4581 83.1392 43.5201C83.1275 40.8885 83.1696 36.5481 83.0199 36.0359C82.0959 32.8791 78.4819 35.2183 77.8082 33.5329C77.5509 32.8897 69.6024 20.9774 69.3439 20.3318C69.324 20.2838 69.3217 20.2195 69.3509 20.1821C72.0585 16.6873 77.4889 12.0323 77.4819 10.6546L77.4433 2.65456C77.4375 1.33176 76.1252 0.641699 75.4 0.641699L65.5755 0.644038C64.7837 0.644038 61.9895 0.611289 61.2679 0.709535C60.5462 0.807781 60.31 1.51538 60.3228 2.30135C60.372 5.06977 60.2667 8.65106 60.3205 11.4206C61.4644 11.0721 62.2632 12.7423 61.772 13.2394L55.7872 19.2955L55.8024 2.8955C55.8035 1.73293 55.2667 0.659243 53.5264 0.655734L42.1638 0.624155C41.6375 0.630003 40.938 1.36801 40.9345 1.85106L40.8772 10.5037C40.8632 12.7388 41.9182 12.713 43.7474 12.6873L44.6129 12.6745C44.6129 19.7973 44.6983 27.1821 44.6983 34.3037L43.3486 34.3189C40.1813 34.3528 41.4538 38.1552 41.2445 43.8043C41.2269 44.2979 41.7439 45.1107 42.3766 45.1224ZM90.6831 45.0733C95.9263 45.0733 101.267 45.0405 106.51 45.0405L119.202 45.0207C119.768 45.0195 121.037 44.6663 121.037 43.7224L121.023 30.844C121.022 29.6405 120.404 28.9212 118.997 28.9329L112.832 28.9867C112.172 28.9926 111.795 29.4663 111.786 30.0522L111.726 33.7166C111.723 33.9505 111.499 34.0885 111.349 34.0897L104.545 34.1633C104.516 31.5891 104.487 29.0136 104.456 26.4394V16.8651L104.539 12.6546L106.178 12.5949C106.984 12.6113 108.197 11.9259 108.192 10.7914L108.184 9.03819C108.173 6.28264 108.192 4.74112 108.139 2.05456C108.119 1.08848 107.067 0.562167 106.021 0.572693L90.3579 0.742284C89.8328 0.748132 89.1591 1.31772 89.1544 1.80193L89.0457 10.837C89.0246 12.706 89.938 12.6206 92.0538 12.6382L93.1474 12.6475C93.1474 19.7704 93.2211 27.0534 93.2211 34.175L91.6796 34.1926C90.4679 34.2066 89.7111 34.2055 89.6562 35.278C89.5661 37.0452 89.7053 40.4066 89.6246 43.8312C89.6129 44.3259 90.0492 45.0733 90.6831 45.0733ZM120.242 0.442868C121.699 0.52357 123.073 1.13877 124.11 2.17737C125.102 3.16802 125.706 4.46275 125.83 5.84638H125.855V6.70603L125.844 6.71071C125.764 8.16919 125.149 9.54112 124.11 10.5797C123.119 11.5704 121.823 12.175 120.441 12.299V12.3236H119.581L119.577 12.313C118.118 12.2323 116.746 11.6171 115.708 10.5785C114.717 9.5879 114.112 8.29316 113.988 6.90954H113.964V6.04989L113.974 6.04521C114.055 4.58673 114.67 3.2148 115.709 2.17737C116.699 1.18556 117.994 0.58088 119.378 0.456903V0.432342H120.237L120.242 0.442868ZM119.91 1.33644V1.33761H119.909V1.33644C118.522 1.33644 117.262 1.90252 116.347 2.81597C115.434 3.73059 114.868 4.99024 114.868 6.37737L114.869 6.37854H114.868C114.868 7.76568 115.434 9.02533 116.347 9.93878C117.261 10.8522 118.522 11.4195 119.909 11.4195V11.4183L119.91 11.4195C121.297 11.4195 122.557 10.8522 123.47 9.93878C124.384 9.02533 124.951 7.76568 124.951 6.37854H124.95V6.37737H124.951C124.95 4.99024 124.384 3.73059 123.47 2.81714C122.557 1.90369 121.297 1.33644 119.91 1.33644ZM118.418 4.19492V5.93644H120.212C120.442 5.93644 120.682 5.89667 120.877 5.76919C121.012 5.68147 121.116 5.56568 121.135 5.40193C121.145 5.30135 121.166 5.16685 121.166 5.06509V4.98205C121.166 4.76217 121.129 4.48965 120.922 4.36685C120.705 4.23819 120.451 4.19492 120.202 4.19492H118.418ZM121.626 6.40427C121.809 6.53761 121.988 6.70369 122.077 6.89433C122.207 7.17153 122.215 7.67328 122.215 7.97503C122.215 8.21714 122.215 8.5493 122.274 8.78439C122.304 8.91071 122.367 9.01246 122.473 9.09199L122.543 9.14463V9.61129H121.297L121.254 9.49784C121.202 9.36568 121.166 9.22767 121.138 9.08848C121.113 8.9727 121.09 8.85106 121.08 8.73527C121.071 8.66275 121.066 8.58907 121.066 8.51539V8.01714C121.066 7.79492 121.048 7.33878 120.87 7.17386C120.708 7.02182 120.459 6.98673 120.244 6.98673H118.418V9.61129H117.276V3.14462H120.186C120.695 3.14462 121.242 3.21948 121.688 3.47913C122.184 3.76802 122.309 4.34696 122.309 4.88147C122.309 5.19609 122.274 5.56802 122.118 5.84755C122.002 6.05457 121.818 6.24404 121.626 6.40427ZM169.066 28.154C168.395 28.2943 167.701 28.3692 166.99 28.3692C161.442 28.3692 156.917 23.8452 156.917 18.2978C156.917 17.7809 156.957 17.2721 157.033 16.775C165.68 15.5376 170.011 22.74 169.066 28.154ZM166.99 8.2265C172.537 8.2265 177.061 12.7505 177.061 18.2978C177.061 22.4721 174.499 26.0663 170.868 27.5902C171.013 26.5867 173.333 16.4791 166.372 8.24521C166.577 8.23351 166.783 8.2265 166.99 8.2265ZM155.208 17.4171C151.592 18.947 149.042 22.5353 149.042 26.699C149.042 32.2464 153.566 36.7704 159.113 36.7704C159.416 36.7704 159.716 36.7563 160.013 36.7294V36.7306C156.678 32.8534 154.659 27.8171 154.659 22.3247C154.659 20.6394 154.849 18.9961 155.208 17.4171ZM163.136 4.92708C162.669 5.29316 162.669 5.29316 163.136 4.92708V4.92708ZM163.139 39.7236C159.374 42.685 154.63 44.4557 149.488 44.4557C137.298 44.4557 127.354 34.5131 127.354 22.3247C127.354 10.1341 137.298 0.191406 149.488 0.191406C154.63 0.191406 159.374 1.961 163.139 4.92357C166.904 1.961 171.648 0.191406 176.791 0.191406C188.98 0.191406 198.923 10.1341 198.923 22.3247C198.923 34.5131 188.98 44.4557 176.791 44.4557C171.628 44.4557 166.911 42.7049 163.139 39.7236Z" fill="#0061A2"/>
</svg>
