<svg width="200" height="57" viewBox="0 0 200 57" fill="none" xmlns="http://www.w3.org/2000/svg">
<g clip-path="url(#clip0_1584_35183)">
<path fill-rule="evenodd" clip-rule="evenodd" d="M199.552 9.45307C199.552 11.7858 197.664 13.6796 195.328 13.6824C192.998 13.6824 191.102 11.7915 191.102 9.4542C191.102 7.12765 192.996 5.23216 195.322 5.23047C197.661 5.23047 199.552 7.12482 199.552 9.45307V9.45307Z" stroke="#EE2C27" stroke-width="0.00138418" stroke-miterlimit="1.41421"/>
<path d="M194.25 9.29942L194.249 7.20394L195.233 7.20338C195.668 7.20281 196.006 7.27795 196.239 7.42823C196.472 7.5853 196.593 7.84857 196.593 8.21637C196.593 8.58473 196.48 8.85479 196.247 9.02767C196.015 9.20846 195.677 9.29886 195.234 9.29886L194.25 9.29942ZM197.045 11.8593L195.677 9.56157C196.068 9.50846 196.376 9.37343 196.608 9.14801C196.833 8.92258 196.946 8.61411 196.946 8.21637C196.946 7.9836 196.908 7.78078 196.833 7.61524C196.75 7.45027 196.645 7.31524 196.502 7.21016C196.359 7.10507 196.194 7.02993 195.991 6.97739C195.788 6.93219 195.571 6.91016 195.323 6.91016L193.903 6.91072L193.906 11.861H194.251L194.25 9.58473L195.302 9.58417L196.647 11.8593H197.045Z" fill="#EE2C27"/>
<path d="M12.0671 57.0798H27.6581L33.6886 28.7674L21.7581 12.0352L12.0671 57.0798Z" fill="#EF3F38"/>
<path d="M21.6215 0.46875H6.02994L0 28.7817L11.9299 45.5139L21.6215 0.46875V0.46875Z" fill="#AE272E"/>
<path d="M173.523 14.1573C179.787 14.1573 184.108 19.3047 184.108 27.7064C184.108 28.0754 184.088 28.4206 184.076 28.7748H192.07C192.07 28.7584 192.073 28.742 192.073 28.7257C192.073 17.0223 183.963 11.3906 173.669 11.3906C162.403 11.3906 155.022 19.2081 155.022 28.7748H162.998C163.133 20.6279 166.988 14.1573 173.523 14.1573Z" fill="#AD292E"/>
<path d="M117.433 25.4704C117.433 20.0308 117.529 16.2918 117.822 12.0195C116.758 12.1156 115.45 12.2591 113.857 12.2608H113.84C112.237 12.2608 110.926 12.1156 109.857 12.0195C110.149 16.2918 110.245 20.0308 110.245 25.4704V28.7721H117.433V25.4704Z" fill="#AD292E"/>
<path d="M142.151 14.4002C145.599 14.4002 148.076 15.7121 150.503 18.7223H151.184C151.329 17.0714 151.668 15.3714 152.299 13.7692C150.066 12.4104 145.794 11.3906 142.394 11.3906C132.503 11.3906 123.689 16.2562 123.166 28.7748H131.095C131.264 18.7963 137.032 14.4002 142.151 14.4002Z" fill="#AD292E"/>
<path d="M60.9056 14.1573C67.17 14.1573 71.4909 19.3047 71.4909 27.7064C71.4909 28.0754 71.4711 28.4206 71.4592 28.7748H79.453C79.453 28.7584 79.4547 28.742 79.4547 28.7257C79.4547 17.0223 71.3451 11.3906 61.0508 11.3906C49.7841 11.3906 42.4033 19.2081 42.4033 28.7748H50.3802C50.5146 20.6279 54.3694 14.1573 60.9056 14.1573Z" fill="#AD292E"/>
<path d="M96.4536 19.9331C96.4536 18.0879 96.4536 16.341 96.5513 15.6602C98.4931 15.6602 102.573 15.9523 105.194 16.2918C105.05 15.563 104.951 14.8839 104.951 14.1546C104.951 13.4269 105.05 12.7472 105.194 12.0195C101.067 12.1642 98.8813 12.2608 92.8592 12.2608C86.8383 12.2608 84.6536 12.1642 80.2344 12.0195C80.3813 12.7472 80.4773 13.4269 80.4773 14.1546C80.4773 14.8839 80.3813 15.563 80.2344 16.2918C83.1479 15.9523 87.2282 15.6602 89.1203 15.6602C89.2671 16.341 89.2671 18.0879 89.2671 19.9331V28.7721H96.4536V19.9331Z" fill="#AD292E"/>
<path d="M173.523 46.1576C184.332 46.1576 192.043 38.3667 192.07 28.7734H184.076C183.738 38.6068 178.807 43.1463 173.183 43.1463C167.744 43.1463 162.985 39.5537 162.985 29.2107C162.985 29.0627 162.995 28.9203 162.998 28.7734H155.022C155.022 40.913 163.277 46.1576 173.523 46.1576Z" fill="#EF3F38"/>
<path d="M109.857 45.526C110.926 45.4282 112.237 45.2836 113.84 45.2836H113.857C115.45 45.2847 116.758 45.4282 117.822 45.526C117.529 41.252 117.433 37.5147 117.433 32.0757V28.7734H110.245V32.0757C110.245 37.5147 110.149 41.252 109.857 45.526Z" fill="#EF3F38"/>
<path d="M141.035 46.1576C145.015 46.1576 148.367 45.3808 150.941 44.0209C151.086 42.6616 151.475 41.252 152.009 39.8932L151.378 39.5051C149.29 41.6893 145.695 43.1463 142.588 43.1463C137.003 43.1463 131.08 39.213 131.08 29.2107C131.08 29.0593 131.093 28.9215 131.095 28.7734H123.166C123.15 29.1616 123.115 29.5356 123.115 29.9384C123.115 39.1164 129.768 46.1576 141.035 46.1576Z" fill="#EF3F38"/>
<path d="M60.9056 46.1576C71.7157 46.1576 79.4265 38.3667 79.453 28.7734H71.4593C71.1208 38.6068 66.1886 43.1463 60.5643 43.1463C55.1265 43.1463 50.3683 39.5537 50.3683 29.2107C50.3683 29.0627 50.3785 28.9203 50.3802 28.7734H42.4033C42.4033 40.913 50.6587 46.1576 60.9056 46.1576Z" fill="#EF3F38"/>
<path d="M88.8792 45.526C89.9464 45.4282 91.2577 45.2836 92.8594 45.2836C94.4633 45.2836 95.7735 45.4282 96.8419 45.526C96.5515 41.252 96.4537 37.5147 96.4537 32.0757V28.7734H89.2673V32.0757C89.2673 37.5147 89.1695 41.252 88.8792 45.526Z" fill="#EF3F38"/>
</g>
<defs>
<clipPath id="clip0_1584_35183">
<rect width="200" height="57" fill="white"/>
</clipPath>
</defs>
</svg>
