<svg width="320" height="100" viewBox="0 0 320 100" fill="none" xmlns="http://www.w3.org/2000/svg">
<g clip-path="url(#clip0_1559_32610)">
<path fill-rule="evenodd" clip-rule="evenodd" d="M259.552 31.4531C259.552 33.7858 257.664 35.6796 255.328 35.6824C252.998 35.6824 251.102 33.7915 251.102 31.4542C251.102 29.1276 252.996 27.2322 255.322 27.2305C257.661 27.2305 259.552 29.1248 259.552 31.4531V31.4531Z" stroke="#EE2C27" stroke-width="0.00138418" stroke-miterlimit="1.41421"/>
<path d="M254.25 31.2994L254.249 29.2039L255.233 29.2034C255.668 29.2028 256.006 29.278 256.239 29.4282C256.472 29.5853 256.593 29.8486 256.593 30.2164C256.593 30.5847 256.48 30.8548 256.247 31.0277C256.015 31.2085 255.677 31.2989 255.234 31.2989L254.25 31.2994ZM257.045 33.8593L255.677 31.5616C256.068 31.5085 256.376 31.3734 256.608 31.148C256.833 30.9226 256.946 30.6141 256.946 30.2164C256.946 29.9836 256.908 29.7808 256.833 29.6152C256.75 29.4503 256.645 29.3152 256.502 29.2102C256.359 29.1051 256.194 29.0299 255.991 28.9774C255.788 28.9322 255.571 28.9102 255.323 28.9102L253.903 28.9107L253.906 33.861H254.251L254.25 31.5847L255.302 31.5842L256.647 33.8593H257.045Z" fill="#EE2C27"/>
<path d="M72.0671 79.0798H87.6581L93.6886 50.7674L81.7581 34.0352L72.0671 79.0798Z" fill="#EF3F38"/>
<path d="M81.6215 22.4688H66.0299L60 50.7817L71.9299 67.5139L81.6215 22.4688V22.4688Z" fill="#AE272E"/>
<path d="M233.523 36.1573C239.787 36.1573 244.108 41.3047 244.108 49.7064C244.108 50.0754 244.088 50.4206 244.076 50.7748H252.07C252.07 50.7584 252.073 50.742 252.073 50.7257C252.073 39.0223 243.963 33.3906 233.669 33.3906C222.403 33.3906 215.022 41.2081 215.022 50.7748H222.998C223.133 42.6279 226.988 36.1573 233.523 36.1573Z" fill="#AD292E"/>
<path d="M177.433 47.4704C177.433 42.0308 177.529 38.2918 177.822 34.0195C176.758 34.1156 175.45 34.2591 173.857 34.2608H173.84C172.237 34.2608 170.926 34.1156 169.857 34.0195C170.149 38.2918 170.245 42.0308 170.245 47.4704V50.7721H177.433V47.4704Z" fill="#AD292E"/>
<path d="M202.151 36.4002C205.599 36.4002 208.076 37.7121 210.503 40.7223H211.184C211.329 39.0714 211.668 37.3714 212.299 35.7692C210.066 34.4104 205.794 33.3906 202.394 33.3906C192.503 33.3906 183.689 38.2562 183.166 50.7748H191.095C191.264 40.7963 197.032 36.4002 202.151 36.4002Z" fill="#AD292E"/>
<path d="M120.906 36.1573C127.17 36.1573 131.491 41.3047 131.491 49.7064C131.491 50.0754 131.471 50.4206 131.459 50.7748H139.453C139.453 50.7584 139.455 50.742 139.455 50.7257C139.455 39.0223 131.345 33.3906 121.051 33.3906C109.784 33.3906 102.403 41.2081 102.403 50.7748H110.38C110.515 42.6279 114.369 36.1573 120.906 36.1573Z" fill="#AD292E"/>
<path d="M156.454 41.9331C156.454 40.0879 156.454 38.341 156.551 37.6602C158.493 37.6602 162.573 37.9523 165.194 38.2918C165.05 37.563 164.951 36.8839 164.951 36.1546C164.951 35.4269 165.05 34.7472 165.194 34.0195C161.067 34.1642 158.881 34.2608 152.859 34.2608C146.838 34.2608 144.654 34.1642 140.234 34.0195C140.381 34.7472 140.477 35.4269 140.477 36.1546C140.477 36.8839 140.381 37.563 140.234 38.2918C143.148 37.9523 147.228 37.6602 149.12 37.6602C149.267 38.341 149.267 40.0879 149.267 41.9331V50.7721H156.454V41.9331Z" fill="#AD292E"/>
<path d="M233.523 68.1576C244.332 68.1576 252.043 60.3667 252.07 50.7734H244.076C243.738 60.6068 238.807 65.1463 233.183 65.1463C227.744 65.1463 222.985 61.5537 222.985 51.2107C222.985 51.0627 222.995 50.9203 222.998 50.7734H215.022C215.022 62.913 223.277 68.1576 233.523 68.1576Z" fill="#EF3F38"/>
<path d="M169.857 67.526C170.926 67.4282 172.237 67.2836 173.84 67.2836H173.857C175.45 67.2847 176.758 67.4282 177.822 67.526C177.529 63.252 177.433 59.5147 177.433 54.0757V50.7734H170.245V54.0757C170.245 59.5147 170.149 63.252 169.857 67.526Z" fill="#EF3F38"/>
<path d="M201.035 68.1576C205.015 68.1576 208.367 67.3808 210.941 66.0209C211.086 64.6616 211.475 63.252 212.009 61.8932L211.378 61.5051C209.29 63.6893 205.695 65.1463 202.588 65.1463C197.003 65.1463 191.08 61.213 191.08 51.2107C191.08 51.0593 191.093 50.9215 191.095 50.7734H183.166C183.15 51.1616 183.115 51.5356 183.115 51.9384C183.115 61.1164 189.768 68.1576 201.035 68.1576Z" fill="#EF3F38"/>
<path d="M120.906 68.1576C131.716 68.1576 139.426 60.3667 139.453 50.7734H131.459C131.121 60.6068 126.189 65.1463 120.564 65.1463C115.126 65.1463 110.368 61.5537 110.368 51.2107C110.368 51.0627 110.378 50.9203 110.38 50.7734H102.403C102.403 62.913 110.659 68.1576 120.906 68.1576Z" fill="#EF3F38"/>
<path d="M148.879 67.526C149.946 67.4282 151.258 67.2836 152.859 67.2836C154.463 67.2836 155.774 67.4282 156.842 67.526C156.551 63.252 156.454 59.5147 156.454 54.0757V50.7734H149.267V54.0757C149.267 59.5147 149.17 63.252 148.879 67.526Z" fill="#EF3F38"/>
</g>
<defs>
<clipPath id="clip0_1559_32610">
<rect width="200" height="57" fill="white" transform="translate(60 22)"/>
</clipPath>
</defs>
</svg>
