<svg width="320" height="100" viewBox="0 0 320 100" fill="none" xmlns="http://www.w3.org/2000/svg">
<g clip-path="url(#clip0_1584_35203)">
<path d="M103 36.1992H111.037V46.2919H114.804L124.943 36.1992H135.878L121.683 49.629L137.543 63.6657H126.174L114.586 53.1187H111.037V63.6657H103V36.1992Z" fill="#1C1C1C"/>
<path d="M149.311 49.7036H162.6C164.772 49.7036 165.569 48.7939 165.569 46.8208V45.91C165.569 43.4826 164.41 43.0283 161.876 43.0283H149.311V49.7036ZM141.273 36.1992H165.534C171.725 36.1992 173.39 39.4228 173.39 44.3544V46.1004C173.39 49.7793 172.593 51.9417 168.899 52.8526V52.9283C171.29 53.3837 173.281 54.4849 173.281 58.999V63.6646H165.243V60.3642C165.243 57.4802 164.446 56.5327 161.948 56.5327H149.311V63.6646H141.273V36.1992Z" fill="#1C1C1C"/>
<path d="M191.314 52.8938H201.598L196.383 42.5728L191.314 52.8938ZM191.169 36.1992H201.633L216.045 63.6679H207.102L204.604 58.812H188.308L185.955 63.6679H176.976L191.169 36.1992Z" fill="#1C1C1C"/>
<path d="M219.63 36.1992H231.977L241.066 53.8781L250.154 36.1992H262.502V63.6657H254.681V43.9391H254.608L244.071 63.6657H238.061L227.524 43.9391H227.451V63.6657H219.63V36.1992Z" fill="#1C1C1C"/>
<path d="M278.143 49.933H290.636C292.519 49.933 293.242 48.6436 293.242 47.0123V45.95C293.242 44.0905 292.375 43.0283 289.948 43.0283H278.143V49.933ZM270.105 36.1992H292.013C299.653 36.1992 301.5 40.2223 301.5 45.6082V47.9599C301.5 52.0575 299.796 56.762 294.114 56.762H278.143V63.6668H270.105V36.1992Z" fill="#1C1C1C"/>
<path d="M79.8624 36.1562H54.4342L40.6318 48.0194H63.5901L79.8624 36.1562Z" fill="#BA322E"/>
<path d="M79.8924 63.6003H54.4621L40.665 51.7383H63.6201L79.8924 63.6003Z" fill="#BA322E"/>
<path d="M18 48.0194H40.3472V36.1562H18V48.0194Z" fill="#BA322E"/>
<path d="M18 63.6003H40.3472V51.7383H18V63.6003Z" fill="#BA322E"/>
<path d="M18 32.4261H80.631V28H18V32.4261Z" fill="#BA322E"/>
<path d="M18 71.7487H80.631V67.3203H18V71.7487Z" fill="#BA322E"/>
</g>
<defs>
<clipPath id="clip0_1584_35203">
<rect width="283.5" height="43.75" fill="white" transform="translate(18 28)"/>
</clipPath>
</defs>
</svg>
