<svg width="284" height="44" viewBox="0 0 284 44" fill="none" xmlns="http://www.w3.org/2000/svg">
<g clip-path="url(#clip0_1584_35204)">
<path d="M84.9995 8.19922H93.0374V18.2919H96.8039L106.943 8.19922H117.878L103.683 21.629L119.543 35.6657H108.174L96.586 25.1187H93.0374V35.6657H84.9995V8.19922Z" fill="#221F20"/>
<path d="M131.311 21.7036H144.6C146.772 21.7036 147.569 20.7939 147.569 18.8208V17.91C147.569 15.4826 146.41 15.0283 143.876 15.0283H131.311V21.7036ZM123.273 8.19922H147.534C153.725 8.19922 155.39 11.4228 155.39 16.3544V18.1004C155.39 21.7793 154.593 23.9417 150.899 24.8526V24.9283C153.29 25.3837 155.281 26.4849 155.281 30.999V35.6646H147.243V32.3642C147.243 29.4802 146.446 28.5327 143.948 28.5327H131.311V35.6646H123.273V8.19922Z" fill="#221F20"/>
<path d="M173.314 24.8938H183.598L178.383 14.5728L173.314 24.8938ZM173.169 8.19922H183.633L198.045 35.6679H189.102L186.604 30.812H170.308L167.955 35.6679H158.976L173.169 8.19922Z" fill="#221F20"/>
<path d="M201.63 8.19922H213.977L223.066 25.8781L232.154 8.19922H244.502V35.6657H236.681V15.9391H236.608L226.071 35.6657H220.061L209.524 15.9391H209.451V35.6657H201.63V8.19922Z" fill="#221F20"/>
<path d="M260.143 21.933H272.636C274.519 21.933 275.242 20.6436 275.242 19.0123V17.95C275.242 16.0905 274.375 15.0283 271.948 15.0283H260.143V21.933ZM252.105 8.19922H274.013C281.653 8.19922 283.5 12.2223 283.5 17.6082V19.9599C283.5 24.0575 281.796 28.762 276.114 28.762H260.143V35.6668H252.105V8.19922Z" fill="#221F20"/>
<path d="M61.8624 8.15625H36.4342L22.6318 20.0194H45.5901L61.8624 8.15625Z" fill="#BA322E"/>
<path d="M61.8924 35.6003H36.4621L22.665 23.7383H45.6201L61.8924 35.6003Z" fill="#BA322E"/>
<path d="M0 20.0194H22.3472V8.15625H0V20.0194Z" fill="#BA322E"/>
<path d="M0 35.6003H22.3472V23.7383H0V35.6003Z" fill="#BA322E"/>
<path d="M0 4.42612H62.631V0H0V4.42612Z" fill="#BA322E"/>
<path d="M0 43.7487H62.631V39.3203H0V43.7487Z" fill="#BA322E"/>
</g>
<defs>
<clipPath id="clip0_1584_35204">
<rect width="283.5" height="43.75" fill="white"/>
</clipPath>
</defs>
</svg>
